<?xml version="1.0" encoding="UTF-8"?>
<!DOCTYPE svg PUBLIC "-//W3C//DTD SVG 1.1//EN" "http://www.w3.org/Graphics/SVG/1.1/DTD/svg11.dtd">
<svg xmlns="http://www.w3.org/2000/svg" version="1.1" width="1000px" height="1000px" style="shape-rendering:geometricPrecision; text-rendering:geometricPrecision; image-rendering:optimizeQuality; fill-rule:evenodd; clip-rule:evenodd" xmlns:xlink="http://www.w3.org/1999/xlink">
<g><path style="opacity:1" fill="#388c28" d="M -0.5,-0.5 C 332.833,-0.5 666.167,-0.5 999.5,-0.5C 999.5,332.833 999.5,666.167 999.5,999.5C 666.167,999.5 332.833,999.5 -0.5,999.5C -0.5,666.167 -0.5,332.833 -0.5,-0.5 Z"/></g>
<g><path style="opacity:1" fill="#38762c" d="M 702.5,257.5 C 692.48,253.997 682.147,252.663 671.5,253.5C 673.397,252.195 675.731,251.529 678.5,251.5C 686.084,251.617 693.418,252.783 700.5,255C 701.381,255.708 702.047,256.542 702.5,257.5 Z"/></g>
<g><path style="opacity:1" fill="#408233" d="M 281.5,255.5 C 302.329,254.337 323.329,254.171 344.5,255C 346.175,255.985 347.842,256.819 349.5,257.5C 345.785,257.577 342.119,257.244 338.5,256.5C 319.674,255.503 300.674,255.17 281.5,255.5 Z"/></g>
<g><path style="opacity:1" fill="#38752b" d="M 468.5,257.5 C 464.282,256.029 459.949,255.029 455.5,254.5C 447.344,253.343 439.01,253.177 430.5,254C 428.148,254.24 426.148,255.073 424.5,256.5C 423.5,256.5 422.5,256.5 421.5,256.5C 422.981,254.753 424.981,253.586 427.5,253C 439.5,252.333 451.5,252.333 463.5,253C 465.618,254.049 467.284,255.549 468.5,257.5 Z"/></g>
<g><path style="opacity:1" fill="#081a03" d="M 455.5,254.5 C 444.98,254.071 434.647,254.738 424.5,256.5C 426.148,255.073 428.148,254.24 430.5,254C 439.01,253.177 447.344,253.343 455.5,254.5 Z"/></g>
<g><path style="opacity:1" fill="#0c0d0a" d="M 455.5,254.5 C 459.949,255.029 464.282,256.029 468.5,257.5C 482.277,264.632 490.277,275.965 492.5,291.5C 492.813,337.857 492.48,384.19 491.5,430.5C 491.167,433.167 490.833,435.833 490.5,438.5C 486.768,447.281 481.102,454.614 473.5,460.5C 471.847,460.66 470.514,461.326 469.5,462.5C 453.565,468.581 437.565,468.915 421.5,463.5C 418.414,460.777 415.08,458.277 411.5,456C 410.663,454.989 410.33,453.822 410.5,452.5C 409.448,452.649 408.448,452.483 407.5,452C 406.285,449.625 404.619,447.791 402.5,446.5C 402.167,446.5 401.833,446.5 401.5,446.5C 400.403,443.314 399.07,440.314 397.5,437.5C 397.167,434.833 396.833,432.167 396.5,429.5C 396.333,382.832 396.5,336.165 397,289.5C 398.524,286.39 399.358,283.056 399.5,279.5C 399.5,279.167 399.5,278.833 399.5,278.5C 403.156,275.197 405.822,271.197 407.5,266.5C 411.462,262.185 416.129,258.852 421.5,256.5C 422.5,256.5 423.5,256.5 424.5,256.5C 434.647,254.738 444.98,254.071 455.5,254.5 Z"/></g>
<g><path style="opacity:1" fill="#0c0d0a" d="M 671.5,253.5 C 682.147,252.663 692.48,253.997 702.5,257.5C 703.514,258.674 704.847,259.34 706.5,259.5C 709.474,262.138 712.474,264.805 715.5,267.5C 716.833,269.5 718.167,271.5 719.5,273.5C 722.709,278.331 724.376,283.664 724.5,289.5C 725.238,300.15 725.572,310.817 725.5,321.5C 716.5,321.5 707.5,321.5 698.5,321.5C 698.197,313.111 698.53,304.778 699.5,296.5C 698.726,295.289 697.893,295.289 697,296.5C 697.242,292.696 695.742,290.03 692.5,288.5C 686.384,282.281 679.384,280.948 671.5,284.5C 667.094,285.909 664.427,288.909 663.5,293.5C 662.833,293.5 662.5,293.833 662.5,294.5C 661.883,294.611 661.383,294.944 661,295.5C 660.333,339.5 660.333,383.5 661,427.5C 662.517,429.24 664.017,430.906 665.5,432.5C 671.295,437.258 677.962,438.758 685.5,437C 688.106,436.208 690.106,434.708 691.5,432.5C 693.104,431.713 693.771,430.38 693.5,428.5C 695.241,426.605 696.241,424.272 696.5,421.5C 697.826,406.328 697.826,390.995 696.5,375.5C 691.23,374.549 685.897,374.215 680.5,374.5C 680.5,365.833 680.5,357.167 680.5,348.5C 695.5,348.5 710.5,348.5 725.5,348.5C 725.667,371.836 725.5,395.169 725,418.5C 724.121,426.212 722.954,433.878 721.5,441.5C 718.341,450.988 712.341,457.988 703.5,462.5C 697.393,464.855 691.059,466.188 684.5,466.5C 673.475,466.625 662.809,464.958 652.5,461.5C 642.519,456.171 635.852,448.171 632.5,437.5C 632.324,434.273 631.657,431.273 630.5,428.5C 630.5,428.167 630.5,427.833 630.5,427.5C 630.333,384.165 630.5,340.832 631,297.5C 631.983,291.421 633.149,285.421 634.5,279.5C 635.967,275.232 637.967,271.232 640.5,267.5C 648.973,258.764 659.307,254.097 671.5,253.5 Z"/></g>
<g><path style="opacity:1" fill="#061402" d="M 338.5,256.5 C 342.119,257.244 345.785,257.577 349.5,257.5C 352.591,258.977 355.591,260.644 358.5,262.5C 356.856,262.286 355.356,262.62 354,263.5C 353.626,262.584 353.126,261.75 352.5,261C 347.393,259.205 342.06,258.205 336.5,258C 318.426,257.181 300.426,257.348 282.5,258.5C 300.803,256.513 319.47,255.846 338.5,256.5 Z"/></g>
<g><path style="opacity:1" fill="#408633" d="M 551.5,255.5 C 537.833,255.5 524.167,255.5 510.5,255.5C 510.167,325.335 510.501,395.002 511.5,464.5C 511.5,464.833 511.5,465.167 511.5,465.5C 510.5,465.5 509.5,465.5 508.5,465.5C 508.5,395.167 508.5,324.833 508.5,254.5C 523.01,254.171 537.343,254.504 551.5,255.5 Z"/></g>
<g><path style="opacity:1" fill="#051401" d="M 551.5,256.5 C 552.743,259.677 553.743,263.01 554.5,266.5C 554.5,267.167 554.5,267.833 554.5,268.5C 552.921,264.973 551.587,261.306 550.5,257.5C 537.833,257.5 525.167,257.5 512.5,257.5C 512.5,325.833 512.5,394.167 512.5,462.5C 521.167,462.5 529.833,462.5 538.5,462.5C 538.333,411.832 538.5,361.166 539,310.5C 540.871,309.332 542.371,309.832 543.5,312C 542.919,312.893 542.585,313.893 542.5,315C 544.072,317.919 544.739,321.085 544.5,324.5C 543.265,321.67 542.265,318.67 541.5,315.5C 541.539,314.244 541.039,313.244 540,312.5C 539.5,363.166 539.333,413.832 539.5,464.5C 530.167,464.5 520.833,464.5 511.5,464.5C 511.5,395.167 511.5,325.833 511.5,256.5C 524.833,256.5 538.167,256.5 551.5,256.5 Z"/></g>
<g><path style="opacity:1" fill="#001800" d="M 585.5,256.5 C 585.5,297.5 585.5,338.5 585.5,379.5C 585.289,381.424 584.623,381.757 583.5,380.5C 584.167,339.167 584.833,297.833 585.5,256.5 Z"/></g>
<g><path style="opacity:1" fill="#102c0a" d="M 281.5,255.5 C 300.674,255.17 319.674,255.503 338.5,256.5C 319.47,255.846 300.803,256.513 282.5,258.5C 282.5,259.5 282.5,260.5 282.5,261.5C 282.5,328.833 282.5,396.167 282.5,463.5C 301.833,463.5 321.167,463.5 340.5,463.5C 321.007,464.497 301.34,464.83 281.5,464.5C 281.5,394.833 281.5,325.167 281.5,255.5 Z"/></g>
<g><path style="opacity:1" fill="#011700" d="M 612.5,256.5 C 613.499,325.331 613.833,394.331 613.5,463.5C 602.167,464.833 590.833,464.833 579.5,463.5C 579.741,461.102 579.074,459.102 577.5,457.5C 577.5,456.833 577.5,456.167 577.5,455.5C 577.326,453.139 576.993,450.806 576.5,448.5C 578.255,452.997 579.588,457.663 580.5,462.5C 591.167,462.5 601.833,462.5 612.5,462.5C 612.5,394.167 612.5,325.833 612.5,257.5C 612.5,257.167 612.5,256.833 612.5,256.5 Z"/></g>
<g><path style="opacity:1" fill="#0c0d0a" d="M 358.5,262.5 C 366.566,265.567 371.9,271.234 374.5,279.5C 374.5,281.5 374.5,283.5 374.5,285.5C 373.5,285.5 372.5,285.5 371.5,285.5C 371.238,286.978 371.571,288.311 372.5,289.5C 373.519,288.313 374.686,287.313 376,286.5C 376.202,288.256 376.702,289.922 377.5,291.5C 378.5,336.828 378.833,382.162 378.5,427.5C 377.971,431.949 376.971,436.282 375.5,440.5C 372.017,447.127 367.35,452.793 361.5,457.5C 359.5,458.167 357.5,458.833 355.5,459.5C 351.98,459.805 348.647,460.638 345.5,462C 324.836,462.5 304.169,462.667 283.5,462.5C 283.832,395.331 283.499,328.331 282.5,261.5C 282.5,260.5 282.5,259.5 282.5,258.5C 300.426,257.348 318.426,257.181 336.5,258C 342.06,258.205 347.393,259.205 352.5,261C 353.126,261.75 353.626,262.584 354,263.5C 355.356,262.62 356.856,262.286 358.5,262.5 Z"/></g>
<g><path style="opacity:1" fill="#0c0d0a" d="M 554.5,268.5 C 555.167,270.167 555.833,271.833 556.5,273.5C 556.5,273.833 556.5,274.167 556.5,274.5C 556.5,275.167 556.5,275.833 556.5,276.5C 556.123,279.525 555.956,282.525 556,285.5C 558.259,287.246 559.592,289.58 560,292.5C 560.333,295.5 560.667,298.5 561,301.5C 563.269,309.027 565.769,316.361 568.5,323.5C 569.374,326.535 570.374,329.535 571.5,332.5C 571.5,332.833 571.5,333.167 571.5,333.5C 571.833,335.5 572.167,337.5 572.5,339.5C 573.42,346.457 575.087,353.124 577.5,359.5C 578.203,361.629 579.203,363.629 580.5,365.5C 581.092,368.127 581.425,370.794 581.5,373.5C 582.455,375.746 583.122,378.079 583.5,380.5C 584.623,381.757 585.289,381.424 585.5,379.5C 586.499,339.003 586.832,298.337 586.5,257.5C 595.167,257.5 603.833,257.5 612.5,257.5C 612.5,325.833 612.5,394.167 612.5,462.5C 601.833,462.5 591.167,462.5 580.5,462.5C 579.588,457.663 578.255,452.997 576.5,448.5C 571.941,432.159 567.274,415.825 562.5,399.5C 562.483,397.435 562.15,395.435 561.5,393.5C 559.922,384.841 557.588,376.508 554.5,368.5C 554.634,366.708 554.301,365.042 553.5,363.5C 552.5,358.167 551.5,352.833 550.5,347.5C 549.501,342.94 548.668,338.273 548,333.5C 547.044,330.353 545.877,327.353 544.5,324.5C 544.739,321.085 544.072,317.919 542.5,315C 542.585,313.893 542.919,312.893 543.5,312C 542.371,309.832 540.871,309.332 539,310.5C 538.5,361.166 538.333,411.832 538.5,462.5C 529.833,462.5 521.167,462.5 512.5,462.5C 512.5,394.167 512.5,325.833 512.5,257.5C 525.167,257.5 537.833,257.5 550.5,257.5C 551.587,261.306 552.921,264.973 554.5,268.5 Z"/></g>
<g><path style="opacity:1" fill="#3b6e31" d="M 613.5,463.5 C 613.833,394.331 613.499,325.331 612.5,256.5C 603.5,256.5 594.5,256.5 585.5,256.5C 584.833,297.833 584.167,339.167 583.5,380.5C 583.122,378.079 582.455,375.746 581.5,373.5C 582.117,373.611 582.617,373.944 583,374.5C 583.5,335.168 583.667,295.835 583.5,256.5C 593.653,255.506 603.986,255.172 614.5,255.5C 614.833,325.002 614.499,394.335 613.5,463.5 Z"/></g>
<g><path style="opacity:1" fill="#081103" d="M 585.5,256.5 C 594.5,256.5 603.5,256.5 612.5,256.5C 612.5,256.833 612.5,257.167 612.5,257.5C 603.833,257.5 595.167,257.5 586.5,257.5C 586.832,298.337 586.499,339.003 585.5,379.5C 585.5,338.5 585.5,297.5 585.5,256.5 Z"/></g>
<g><path style="opacity:1" fill="#3f8631" d="M 583.5,256.5 C 583.667,295.835 583.5,335.168 583,374.5C 582.617,373.944 582.117,373.611 581.5,373.5C 581.425,370.794 581.092,368.127 580.5,365.5C 581.117,365.611 581.617,365.944 582,366.5C 582.167,329.664 582.667,292.998 583.5,256.5 Z"/></g>
<g><path style="opacity:1" fill="#366d2b" d="M 706.5,259.5 C 710.767,260.768 713.767,263.435 715.5,267.5C 712.474,264.805 709.474,262.138 706.5,259.5 Z"/></g>
<g><path style="opacity:1" fill="#091005" d="M 282.5,261.5 C 283.499,328.331 283.832,395.331 283.5,462.5C 304.169,462.667 324.836,462.5 345.5,462C 348.647,460.638 351.98,459.805 355.5,459.5C 350.922,462.02 345.922,463.353 340.5,463.5C 321.167,463.5 301.833,463.5 282.5,463.5C 282.5,396.167 282.5,328.833 282.5,261.5 Z"/></g>
<g><path style="opacity:1" fill="#0c3305" d="M 551.5,255.5 C 551.5,255.833 551.5,256.167 551.5,256.5C 538.167,256.5 524.833,256.5 511.5,256.5C 511.5,325.833 511.5,395.167 511.5,464.5C 510.501,395.002 510.167,325.335 510.5,255.5C 524.167,255.5 537.833,255.5 551.5,255.5 Z"/></g>
<g><path style="opacity:1" fill="#346d29" d="M 554.5,266.5 C 556.344,268.279 557.01,270.612 556.5,273.5C 555.833,271.833 555.167,270.167 554.5,268.5C 554.5,267.833 554.5,267.167 554.5,266.5 Z"/></g>
<g><path style="opacity:1" fill="#0a1c04" d="M 406.5,266.5 C 406.833,266.5 407.167,266.5 407.5,266.5C 405.822,271.197 403.156,275.197 399.5,278.5C 401.806,274.517 404.139,270.517 406.5,266.5 Z"/></g>
<g><path style="opacity:1" fill="#356c2a" d="M 556.5,274.5 C 557.117,274.611 557.617,274.944 558,275.5C 559.359,279.405 560.192,283.405 560.5,287.5C 558.707,283.99 557.374,280.324 556.5,276.5C 556.5,275.833 556.5,275.167 556.5,274.5 Z"/></g>
<g><path style="opacity:1" fill="#39722e" d="M 692.5,288.5 C 692.5,288.833 692.5,289.167 692.5,289.5C 686.364,284.872 679.364,283.205 671.5,284.5C 679.384,280.948 686.384,282.281 692.5,288.5 Z"/></g>
<g><path style="opacity:1" fill="#388c28" d="M 459.5,293.5 C 459.791,338.513 459.458,383.513 458.5,428.5C 458.155,431.198 456.822,433.198 454.5,434.5C 447.227,437.572 440.227,437.072 433.5,433C 432.588,430.795 431.255,428.962 429.5,427.5C 428.167,382.167 428.167,336.833 429.5,291.5C 433.807,283.521 440.474,280.688 449.5,283C 455.028,284.562 458.362,288.062 459.5,293.5 Z"/></g>
<g><path style="opacity:1" fill="#051602" d="M 314.5,285.5 C 314.5,335.167 314.5,384.833 314.5,434.5C 320.5,434.5 326.5,434.5 332.5,434.5C 326.099,435.826 319.599,435.826 313,434.5C 312.833,409.667 312.667,384.833 312.5,360C 312.5,334.824 313.167,309.991 314.5,285.5 Z"/></g>
<g><path style="opacity:1" fill="#487d3c" d="M 314.5,285.5 C 321.841,285.334 329.174,285.5 336.5,286C 340.007,287.359 342.673,289.526 344.5,292.5C 341.686,290.319 338.686,288.652 335.5,287.5C 329.021,286.509 322.354,286.176 315.5,286.5C 315.5,335.5 315.5,384.5 315.5,433.5C 322.167,433.5 328.833,433.5 335.5,433.5C 334.791,434.404 333.791,434.737 332.5,434.5C 326.5,434.5 320.5,434.5 314.5,434.5C 314.5,384.833 314.5,335.167 314.5,285.5 Z"/></g>
<g><path style="opacity:1" fill="#3b7a2e" d="M 640.5,267.5 C 637.967,271.232 635.967,275.232 634.5,279.5C 632.731,283.296 631.231,287.296 630,291.5C 629.5,332.832 629.333,374.165 629.5,415.5C 628.335,373.669 628.169,331.669 629,289.5C 631.212,283.509 633.212,277.509 635,271.5C 636.147,269.181 637.981,267.848 640.5,267.5 Z"/></g>
<g><path style="opacity:1" fill="#3d8730" d="M 335.5,287.5 C 329.167,287.5 322.833,287.5 316.5,287.5C 316.5,335.833 316.5,384.167 316.5,432.5C 324.167,432.5 331.833,432.5 339.5,432.5C 338.432,433.434 337.099,433.768 335.5,433.5C 328.833,433.5 322.167,433.5 315.5,433.5C 315.5,384.5 315.5,335.5 315.5,286.5C 322.354,286.176 329.021,286.509 335.5,287.5 Z"/></g>
<g><path style="opacity:1" fill="#388c28" d="M 335.5,287.5 C 338.686,288.652 341.686,290.319 344.5,292.5C 344.181,294.75 344.681,296.75 346,298.5C 346.833,339.837 346.667,381.171 345.5,422.5C 343.717,424.023 343.051,426.023 343.5,428.5C 340.858,428.488 339.525,429.821 339.5,432.5C 331.833,432.5 324.167,432.5 316.5,432.5C 316.5,384.167 316.5,335.833 316.5,287.5C 322.833,287.5 329.167,287.5 335.5,287.5 Z"/></g>
<g><path style="opacity:1" fill="#3a7d2d" d="M 560.5,287.5 C 561.957,289.242 563.124,291.242 564,293.5C 564.499,297.152 564.665,300.818 564.5,304.5C 562.251,299.164 560.918,293.497 560.5,287.5 Z"/></g>
<g><path style="opacity:1" fill="#041500" d="M 460.5,293.5 C 461.117,293.611 461.617,293.944 462,294.5C 462.667,338.833 462.667,383.167 462,427.5C 460.367,430.7 458.2,433.534 455.5,436C 454.552,436.483 453.552,436.649 452.5,436.5C 453.167,435.833 453.833,435.167 454.5,434.5C 456.822,433.198 458.155,431.198 458.5,428.5C 459.793,427.158 460.626,425.491 461,423.5C 461.812,380.144 461.645,336.811 460.5,293.5 Z"/></g>
<g><path style="opacity:1" fill="#051701" d="M 492.5,291.5 C 493.461,293.265 493.795,295.265 493.5,297.5C 493.667,340.835 493.5,384.168 493,427.5C 492.768,428.737 492.268,429.737 491.5,430.5C 492.48,384.19 492.813,337.857 492.5,291.5 Z"/></g>
<g><path style="opacity:1" fill="#408332" d="M 692.5,289.5 C 694.585,291.684 695.585,294.351 695.5,297.5C 695.5,306.167 695.5,314.833 695.5,323.5C 695.022,312.157 694.022,300.824 692.5,289.5 Z"/></g>
<g><path style="opacity:1" fill="#408234" d="M 428.5,291.5 C 428.833,291.5 429.167,291.5 429.5,291.5C 428.167,336.833 428.167,382.167 429.5,427.5C 428.883,427.389 428.383,427.056 428,426.5C 427.177,381.459 427.344,336.459 428.5,291.5 Z"/></g>
<g><path style="opacity:1" fill="#051401" d="M 662.5,294.5 C 661.355,337.144 661.188,379.811 662,422.5C 662.895,425.951 664.062,429.284 665.5,432.5C 664.017,430.906 662.517,429.24 661,427.5C 660.333,383.5 660.333,339.5 661,295.5C 661.383,294.944 661.883,294.611 662.5,294.5 Z"/></g>
<g><path style="opacity:1" fill="#101b0a" d="M 428.5,291.5 C 427.344,336.459 427.177,381.459 428,426.5C 428.383,427.056 428.883,427.389 429.5,427.5C 430.011,430.022 431.011,432.355 432.5,434.5C 430.926,434.063 429.759,433.063 429,431.5C 427.367,428.319 426.034,424.986 425,421.5C 424.333,380.5 424.333,339.5 425,298.5C 425.86,295.916 427.027,293.583 428.5,291.5 Z"/></g>
<g><path style="opacity:1" fill="#377929" d="M 493.5,297.5 C 494.268,298.263 494.768,299.263 495,300.5C 495.667,340.167 495.667,379.833 495,419.5C 494.675,424.76 493.842,429.927 492.5,435C 492.392,436.681 491.725,437.848 490.5,438.5C 490.833,435.833 491.167,433.167 491.5,430.5C 492.268,429.737 492.768,428.737 493,427.5C 493.5,384.168 493.667,340.835 493.5,297.5 Z"/></g>
<g><path style="opacity:1" fill="#3f8232" d="M 719.5,273.5 C 720.5,273.5 721.5,273.5 722.5,273.5C 723.78,279.202 725.447,284.869 727.5,290.5C 728.824,301.66 728.824,312.66 727.5,323.5C 727.826,314.983 727.493,306.65 726.5,298.5C 726.785,295.171 726.118,292.171 724.5,289.5C 724.376,283.664 722.709,278.331 719.5,273.5 Z"/></g>
<g><path style="opacity:1" fill="#408233" d="M 344.5,292.5 C 346.585,294.684 347.585,297.351 347.5,300.5C 347.822,342.209 347.489,383.876 346.5,425.5C 345.173,428.827 342.84,431.16 339.5,432.5C 339.525,429.821 340.858,428.488 343.5,428.5C 343.051,426.023 343.717,424.023 345.5,422.5C 346.667,381.171 346.833,339.837 346,298.5C 344.681,296.75 344.181,294.75 344.5,292.5 Z"/></g>
<g><path style="opacity:1" fill="#071803" d="M 556.5,276.5 C 557.374,280.324 558.707,283.99 560.5,287.5C 560.918,293.497 562.251,299.164 564.5,304.5C 564.5,304.833 564.5,305.167 564.5,305.5C 565.089,310.158 566.422,314.491 568.5,318.5C 568.5,319.5 568.5,320.5 568.5,321.5C 568.5,322.167 568.5,322.833 568.5,323.5C 565.769,316.361 563.269,309.027 561,301.5C 560.667,298.5 560.333,295.5 560,292.5C 559.592,289.58 558.259,287.246 556,285.5C 555.956,282.525 556.123,279.525 556.5,276.5 Z"/></g>
<g><path style="opacity:1" fill="#071a03" d="M 634.5,279.5 C 633.149,285.421 631.983,291.421 631,297.5C 630.5,340.832 630.333,384.165 630.5,427.5C 629.517,423.702 629.183,419.702 629.5,415.5C 629.333,374.165 629.5,332.832 630,291.5C 631.231,287.296 632.731,283.296 634.5,279.5 Z"/></g>
<g><path style="opacity:1" fill="#356e28" d="M 663.5,293.5 C 663.333,336.835 663.5,380.168 664,423.5C 666.952,433.897 673.785,438.064 684.5,436C 685.973,435.29 686.64,434.124 686.5,432.5C 688.167,432.5 689.833,432.5 691.5,432.5C 690.106,434.708 688.106,436.208 685.5,437C 677.962,438.758 671.295,437.258 665.5,432.5C 664.062,429.284 662.895,425.951 662,422.5C 661.188,379.811 661.355,337.144 662.5,294.5C 662.5,293.833 662.833,293.5 663.5,293.5 Z"/></g>
<g><path style="opacity:1" fill="#061603" d="M 374.5,279.5 C 376.955,284.319 378.955,289.319 380.5,294.5C 380.5,337.5 380.5,380.5 380.5,423.5C 379.833,424.833 379.167,426.167 378.5,427.5C 378.833,382.162 378.5,336.828 377.5,291.5C 376.702,289.922 376.202,288.256 376,286.5C 374.686,287.313 373.519,288.313 372.5,289.5C 371.571,288.311 371.238,286.978 371.5,285.5C 372.5,285.5 373.5,285.5 374.5,285.5C 374.5,283.5 374.5,281.5 374.5,279.5 Z"/></g>
<g><path style="opacity:1" fill="#3e8630" d="M 406.5,266.5 C 404.139,270.517 401.806,274.517 399.5,278.5C 399.5,278.833 399.5,279.167 399.5,279.5C 396.987,283.378 395.654,287.711 395.5,292.5C 394.778,292.918 394.278,293.584 394,294.5C 393.188,338.856 393.354,383.189 394.5,427.5C 393.732,426.737 393.232,425.737 393,424.5C 392.333,380.167 392.333,335.833 393,291.5C 394.504,285.653 396.671,279.986 399.5,274.5C 401.181,271.121 403.514,268.454 406.5,266.5 Z"/></g>
<g><path style="opacity:1" fill="#3c6e32" d="M 395.5,292.5 C 394.366,335.484 394.199,378.484 395,421.5C 395.183,424.365 395.683,427.031 396.5,429.5C 396.833,432.167 397.167,434.833 397.5,437.5C 396.25,437.423 395.417,436.756 395,435.5C 394.503,432.854 394.336,430.187 394.5,427.5C 393.354,383.189 393.188,338.856 394,294.5C 394.278,293.584 394.778,292.918 395.5,292.5 Z"/></g>
<g><path style="opacity:1" fill="#367529" d="M 459.5,293.5 C 459.833,293.5 460.167,293.5 460.5,293.5C 461.645,336.811 461.812,380.144 461,423.5C 460.626,425.491 459.793,427.158 458.5,428.5C 459.458,383.513 459.791,338.513 459.5,293.5 Z"/></g>
<g><path style="opacity:1" fill="#111f0a" d="M 347.5,300.5 C 348.222,300.918 348.722,301.584 349,302.5C 349.667,341.167 349.667,379.833 349,418.5C 348.667,420.5 348.333,422.5 348,424.5C 347.617,425.056 347.117,425.389 346.5,425.5C 347.489,383.876 347.822,342.209 347.5,300.5 Z"/></g>
<g><path style="opacity:1" fill="#3f7f32" d="M 380.5,294.5 C 381.117,294.611 381.617,294.944 382,295.5C 382.667,337.5 382.667,379.5 382,421.5C 381.722,422.416 381.222,423.082 380.5,423.5C 380.5,380.5 380.5,337.5 380.5,294.5 Z"/></g>
<g><path style="opacity:1" fill="#061502" d="M 399.5,279.5 C 399.358,283.056 398.524,286.39 397,289.5C 396.5,336.165 396.333,382.832 396.5,429.5C 395.683,427.031 395.183,424.365 395,421.5C 394.199,378.484 394.366,335.484 395.5,292.5C 395.654,287.711 396.987,283.378 399.5,279.5 Z"/></g>
<g><path style="opacity:1" fill="#38712d" d="M 564.5,305.5 C 565.117,305.611 565.617,305.944 566,306.5C 566.945,310.494 567.778,314.494 568.5,318.5C 566.422,314.491 565.089,310.158 564.5,305.5 Z"/></g>
<g><path style="opacity:1" fill="#25561a" d="M 541.5,315.5 C 540.833,365.167 540.167,414.833 539.5,464.5C 539.333,413.832 539.5,363.166 540,312.5C 541.039,313.244 541.539,314.244 541.5,315.5 Z"/></g>
<g><path style="opacity:1" fill="#061204" d="M 692.5,289.5 C 692.5,289.167 692.5,288.833 692.5,288.5C 695.742,290.03 697.242,292.696 697,296.5C 697.893,295.289 698.726,295.289 699.5,296.5C 698.53,304.778 698.197,313.111 698.5,321.5C 707.5,321.5 716.5,321.5 725.5,321.5C 725.572,310.817 725.238,300.15 724.5,289.5C 726.118,292.171 726.785,295.171 726.5,298.5C 726.5,306.5 726.5,314.5 726.5,322.5C 716.5,322.5 706.5,322.5 696.5,322.5C 696.826,313.983 696.493,305.65 695.5,297.5C 695.585,294.351 694.585,291.684 692.5,289.5 Z"/></g>
<g><path style="opacity:1" fill="#336829" d="M 568.5,321.5 C 569.117,321.611 569.617,321.944 570,322.5C 571.043,325.757 571.543,329.09 571.5,332.5C 570.374,329.535 569.374,326.535 568.5,323.5C 568.5,322.833 568.5,322.167 568.5,321.5 Z"/></g>
<g><path style="opacity:1" fill="#1b3d14" d="M 695.5,297.5 C 696.493,305.65 696.826,313.983 696.5,322.5C 706.5,322.5 716.5,322.5 726.5,322.5C 726.5,314.5 726.5,306.5 726.5,298.5C 727.493,306.65 727.826,314.983 727.5,323.5C 716.833,323.5 706.167,323.5 695.5,323.5C 695.5,314.833 695.5,306.167 695.5,297.5 Z"/></g>
<g><path style="opacity:1" fill="#081903" d="M 544.5,324.5 C 545.877,327.353 547.044,330.353 548,333.5C 548.668,338.273 549.501,342.94 550.5,347.5C 549.167,344.167 547.833,340.833 546.5,337.5C 545.833,333.167 545.167,328.833 544.5,324.5 Z"/></g>
<g><path style="opacity:1" fill="#408432" d="M 541.5,315.5 C 542.265,318.67 543.265,321.67 544.5,324.5C 545.167,328.833 545.833,333.167 546.5,337.5C 543.9,332.93 542.4,327.93 542,322.5C 541.833,370.17 541.333,417.837 540.5,465.5C 530.705,466.819 521.039,466.819 511.5,465.5C 511.5,465.167 511.5,464.833 511.5,464.5C 520.833,464.5 530.167,464.5 539.5,464.5C 540.167,414.833 540.833,365.167 541.5,315.5 Z"/></g>
<g><path style="opacity:1" fill="#3b792f" d="M 571.5,333.5 C 573.669,336.098 575.169,339.098 576,342.5C 577.744,350.114 579.244,357.781 580.5,365.5C 579.203,363.629 578.203,361.629 577.5,359.5C 576.678,352.524 575.012,345.857 572.5,339.5C 572.167,337.5 571.833,335.5 571.5,333.5 Z"/></g>
<g><path style="opacity:1" fill="#408632" d="M 727.5,346.5 C 711.5,346.5 695.5,346.5 679.5,346.5C 679.5,356.167 679.5,365.833 679.5,375.5C 678.506,365.347 678.172,355.014 678.5,344.5C 695.201,343.848 711.534,344.515 727.5,346.5 Z"/></g>
<g><path style="opacity:1" fill="#408233" d="M 727.5,346.5 C 728.664,373.33 728.83,400.33 728,427.5C 727.197,432.776 725.363,437.443 722.5,441.5C 725.112,433.716 726.446,425.716 726.5,417.5C 727.498,394.006 727.831,370.339 727.5,346.5 Z"/></g>
<g><path style="opacity:1" fill="#0a1c05" d="M 572.5,339.5 C 575.012,345.857 576.678,352.524 577.5,359.5C 575.087,353.124 573.42,346.457 572.5,339.5 Z"/></g>
<g><path style="opacity:1" fill="#193d12" d="M 727.5,346.5 C 727.831,370.339 727.498,394.006 726.5,417.5C 726.5,394.167 726.5,370.833 726.5,347.5C 710.991,347.17 695.658,347.504 680.5,348.5C 680.5,357.167 680.5,365.833 680.5,374.5C 680.5,375.167 680.5,375.833 680.5,376.5C 680.167,376.5 679.833,376.5 679.5,376.5C 679.5,376.167 679.5,375.833 679.5,375.5C 679.5,365.833 679.5,356.167 679.5,346.5C 695.5,346.5 711.5,346.5 727.5,346.5 Z"/></g>
<g><path style="opacity:1" fill="#051401" d="M 680.5,348.5 C 695.658,347.504 710.991,347.17 726.5,347.5C 726.5,370.833 726.5,394.167 726.5,417.5C 726.446,425.716 725.112,433.716 722.5,441.5C 722.167,441.5 721.833,441.5 721.5,441.5C 722.954,433.878 724.121,426.212 725,418.5C 725.5,395.169 725.667,371.836 725.5,348.5C 710.5,348.5 695.5,348.5 680.5,348.5 Z"/></g>
<g><path style="opacity:1" fill="#3b7b2e" d="M 546.5,337.5 C 547.833,340.833 549.167,344.167 550.5,347.5C 551.5,352.833 552.5,358.167 553.5,363.5C 551.36,361.3 549.86,358.633 549,355.5C 548.625,349.411 547.792,343.411 546.5,337.5 Z"/></g>
<g><path style="opacity:1" fill="#031500" d="M 680.5,374.5 C 685.897,374.215 691.23,374.549 696.5,375.5C 697.826,390.995 697.826,406.328 696.5,421.5C 696.5,406.5 696.5,391.5 696.5,376.5C 691.167,376.5 685.833,376.5 680.5,376.5C 680.5,375.833 680.5,375.167 680.5,374.5 Z"/></g>
<g><path style="opacity:1" fill="#3a742e" d="M 679.5,376.5 C 679.833,376.5 680.167,376.5 680.5,376.5C 685.833,376.5 691.167,376.5 696.5,376.5C 696.5,391.5 696.5,406.5 696.5,421.5C 696.241,424.272 695.241,426.605 693.5,428.5C 694.457,411.868 694.79,395.201 694.5,378.5C 689.056,379.108 684.056,378.442 679.5,376.5 Z"/></g>
<g><path style="opacity:1" fill="#38792b" d="M 554.5,368.5 C 557.588,376.508 559.922,384.841 561.5,393.5C 560.647,390.813 559.147,388.479 557,386.5C 555.371,380.662 554.538,374.662 554.5,368.5 Z"/></g>
<g><path style="opacity:1" fill="#3b792f" d="M 429.5,427.5 C 431.255,428.962 432.588,430.795 433.5,433C 440.227,437.072 447.227,437.572 454.5,434.5C 453.833,435.167 453.167,435.833 452.5,436.5C 445.523,438.324 438.856,437.657 432.5,434.5C 431.011,432.355 430.011,430.022 429.5,427.5 Z"/></g>
<g><path style="opacity:1" fill="#39782d" d="M 380.5,423.5 C 380.221,429.222 379.555,434.889 378.5,440.5C 377.5,440.5 376.5,440.5 375.5,440.5C 376.971,436.282 377.971,431.949 378.5,427.5C 379.167,426.167 379.833,424.833 380.5,423.5 Z"/></g>
<g><path style="opacity:1" fill="#356c2a" d="M 630.5,428.5 C 631.657,431.273 632.324,434.273 632.5,437.5C 631.883,437.389 631.383,437.056 631,436.5C 630.503,433.854 630.336,431.187 630.5,428.5 Z"/></g>
<g><path style="opacity:1" fill="#3a782d" d="M 562.5,399.5 C 567.274,415.825 571.941,432.159 576.5,448.5C 576.993,450.806 577.326,453.139 577.5,455.5C 576.542,455.047 575.708,454.381 575,453.5C 575.035,448.656 573.702,444.323 571,440.5C 570.103,429.451 567.603,418.784 563.5,408.5C 562.516,405.572 562.183,402.572 562.5,399.5 Z"/></g>
<g><path style="opacity:1" fill="#3b812c" d="M 490.5,438.5 C 491.279,443.237 489.946,447.07 486.5,450C 486.735,450.873 487.069,451.707 487.5,452.5C 485.511,452.532 483.511,453.365 481.5,455C 480.433,459.041 477.766,460.875 473.5,460.5C 481.102,454.614 486.768,447.281 490.5,438.5 Z"/></g>
<g><path style="opacity:1" fill="#3b792f" d="M 401.5,446.5 C 401.833,446.5 402.167,446.5 402.5,446.5C 404.341,450.183 406.674,453.516 409.5,456.5C 404.795,454.81 402.129,451.477 401.5,446.5 Z"/></g>
<g><path style="opacity:1" fill="#091904" d="M 402.5,446.5 C 404.619,447.791 406.285,449.625 407.5,452C 408.448,452.483 409.448,452.649 410.5,452.5C 410.33,453.822 410.663,454.989 411.5,456C 415.08,458.277 418.414,460.777 421.5,463.5C 417.199,461.683 413.199,459.35 409.5,456.5C 406.674,453.516 404.341,450.183 402.5,446.5 Z"/></g>
<g><path style="opacity:1" fill="#3c7d2f" d="M 409.5,456.5 C 413.199,459.35 417.199,461.683 421.5,463.5C 437.565,468.915 453.565,468.581 469.5,462.5C 468.71,463.794 467.71,464.961 466.5,466C 450.406,469.835 434.572,469.335 419,464.5C 416.397,462.448 413.564,460.782 410.5,459.5C 409.873,458.583 409.539,457.583 409.5,456.5 Z"/></g>
<g><path style="opacity:1" fill="#356a2a" d="M 577.5,457.5 C 579.074,459.102 579.741,461.102 579.5,463.5C 577.926,461.898 577.259,459.898 577.5,457.5 Z"/></g>
<g><path style="opacity:1" fill="#467f3a" d="M 361.5,457.5 C 360.708,459.257 359.375,460.591 357.5,461.5C 352.906,462.98 348.239,464.146 343.5,465C 322.663,465.829 301.996,465.663 281.5,464.5C 301.34,464.83 321.007,464.497 340.5,463.5C 345.922,463.353 350.922,462.02 355.5,459.5C 357.5,458.833 359.5,458.167 361.5,457.5 Z"/></g>
<g><path style="opacity:1" fill="#0d2207" d="M 652.5,461.5 C 662.809,464.958 673.475,466.625 684.5,466.5C 675.436,468.161 666.436,467.495 657.5,464.5C 655.632,463.737 653.965,462.737 652.5,461.5 Z"/></g>
<g><path style="opacity:1" fill="#3e8030" d="M 703.5,462.5 C 700.672,464.47 697.672,466.303 694.5,468C 683.152,468.832 671.819,468.666 660.5,467.5C 659.23,466.712 658.23,465.712 657.5,464.5C 666.436,467.495 675.436,468.161 684.5,466.5C 691.059,466.188 697.393,464.855 703.5,462.5 Z"/></g>
<g><path style="opacity:1" fill="#3a7d2c" d="M 412.5,507.5 C 409.598,506.422 406.598,505.756 403.5,505.5C 402.737,504.732 401.737,504.232 400.5,504C 391.833,503.333 383.167,503.333 374.5,504C 372.148,504.24 370.148,505.073 368.5,506.5C 367.5,506.5 366.5,506.5 365.5,506.5C 366.981,504.753 368.981,503.586 371.5,503C 379.608,500.658 387.942,499.992 396.5,501C 400.747,502.405 405.08,503.738 409.5,505C 410.942,505.377 411.942,506.21 412.5,507.5 Z"/></g>
<g><path style="opacity:1" fill="#38762c" d="M 636.5,504.5 C 635.167,504.5 633.833,504.5 632.5,504.5C 621.415,502.718 610.415,503.385 599.5,506.5C 600.574,504.716 602.24,503.549 604.5,503C 614.514,501.188 624.514,501.188 634.5,503C 635.416,503.278 636.082,503.778 636.5,504.5 Z"/></g>
<g><path style="opacity:1" fill="#071902" d="M 632.5,504.5 C 624.826,504.334 617.159,504.5 609.5,505C 605.12,506.343 600.786,507.51 596.5,508.5C 597.167,507.833 597.833,507.167 598.5,506.5C 598.833,506.5 599.167,506.5 599.5,506.5C 610.415,503.385 621.415,502.718 632.5,504.5 Z"/></g>
<g><path style="opacity:1" fill="#091704" d="M 752.5,505.5 C 756.79,507.491 761.124,509.491 765.5,511.5C 765.833,512.167 766.167,512.833 766.5,513.5C 764.482,512.377 762.482,512.377 760.5,513.5C 759.614,512.675 759.281,511.675 759.5,510.5C 751.02,507.164 742.187,505.164 733,504.5C 724.55,505.646 716.05,506.979 707.5,508.5C 710.718,506.259 714.384,504.759 718.5,504C 729.925,503.042 741.259,503.542 752.5,505.5 Z"/></g>
<g><path style="opacity:1" fill="#3f8132" d="M 225.5,505.5 C 247.004,504.172 268.67,504.172 290.5,505.5C 294.666,505.723 297.999,507.389 300.5,510.5C 298.883,509.962 297.216,509.629 295.5,509.5C 295.082,508.778 294.416,508.278 293.5,508C 289.809,507.58 286.142,507.08 282.5,506.5C 263.674,505.503 244.674,505.17 225.5,505.5 Z"/></g>
<g><path style="opacity:1" fill="#0c0d0a" d="M 403.5,505.5 C 406.598,505.756 409.598,506.422 412.5,507.5C 417.422,510.413 422.088,513.746 426.5,517.5C 428.769,521.038 430.769,524.705 432.5,528.5C 432.336,531.187 432.503,533.854 433,536.5C 434.844,539.533 435.844,542.866 436,546.5C 436.667,589.833 436.667,633.167 436,676.5C 434.682,680.333 433.849,684.333 433.5,688.5C 432.353,691.947 431.02,695.28 429.5,698.5C 425.833,702.833 421.833,706.833 417.5,710.5C 415.847,710.66 414.514,711.326 413.5,712.5C 398.598,718.088 383.598,718.755 368.5,714.5C 362.07,712.452 356.404,709.119 351.5,704.5C 349.853,701.527 347.853,698.86 345.5,696.5C 344.403,693.314 343.07,690.314 341.5,687.5C 340.19,682.257 339.524,676.923 339.5,671.5C 339.221,627.489 339.555,583.489 340.5,539.5C 341.04,536.135 341.706,532.802 342.5,529.5C 343.167,528.833 343.833,528.167 344.5,527.5C 347.579,524.35 349.913,520.683 351.5,516.5C 355.497,512.174 360.164,508.84 365.5,506.5C 366.5,506.5 367.5,506.5 368.5,506.5C 375.446,505.537 382.446,504.871 389.5,504.5C 394.193,504.634 398.859,504.968 403.5,505.5 Z"/></g>
<g><path style="opacity:1" fill="#408233" d="M 453.5,505.5 C 467.327,504.339 481.327,504.173 495.5,505C 497.046,509.019 498.046,513.185 498.5,517.5C 496.765,513.959 495.431,510.293 494.5,506.5C 481.01,505.504 467.344,505.171 453.5,505.5 Z"/></g>
<g><path style="opacity:1" fill="#0c0d0a" d="M 632.5,504.5 C 633.833,504.5 635.167,504.5 636.5,504.5C 639.982,506.062 643.648,507.395 647.5,508.5C 651.064,510.462 654.064,513.129 656.5,516.5C 658.067,519.283 659.9,521.949 662,524.5C 663.576,529.742 665.41,534.742 667.5,539.5C 668.404,540.209 668.737,541.209 668.5,542.5C 668.5,552.167 668.5,561.833 668.5,571.5C 659.167,571.5 649.833,571.5 640.5,571.5C 640.666,562.494 640.5,553.494 640,544.5C 639.617,543.944 639.117,543.611 638.5,543.5C 637.833,542.5 637.167,541.5 636.5,540.5C 633.33,534.832 628.497,532.499 622,533.5C 614.989,532.419 610.155,535.085 607.5,541.5C 605.837,543.438 605.171,545.772 605.5,548.5C 604.883,548.611 604.383,548.944 604,549.5C 603.333,590.167 603.333,630.833 604,671.5C 604.383,672.056 604.883,672.389 605.5,672.5C 605.773,678.414 608.439,682.747 613.5,685.5C 613.918,686.222 614.584,686.722 615.5,687C 619.833,687.667 624.167,687.667 628.5,687C 630.066,686.392 631.4,685.558 632.5,684.5C 634.737,682.353 636.737,680.02 638.5,677.5C 640.486,660.198 641.153,642.532 640.5,624.5C 635.167,624.5 629.833,624.5 624.5,624.5C 624.5,615.833 624.5,607.167 624.5,598.5C 639.167,598.5 653.833,598.5 668.5,598.5C 668.5,624.833 668.5,651.167 668.5,677.5C 667.678,684.994 665.345,691.994 661.5,698.5C 660.527,700.139 659.194,701.473 657.5,702.5C 654.996,702.828 653.162,704.162 652,706.5C 651.586,706.043 651.086,705.709 650.5,705.5C 649.772,707.193 648.772,708.693 647.5,710C 631.067,716.184 614.401,717.017 597.5,712.5C 588.468,708.135 581.802,701.468 577.5,692.5C 575.696,686.95 574.362,681.283 573.5,675.5C 573.333,634.499 573.5,593.499 574,552.5C 574.445,546.82 574.945,541.154 575.5,535.5C 576.38,530.525 578.047,525.859 580.5,521.5C 582.5,519.5 584.5,517.5 586.5,515.5C 590.192,513.656 593.525,511.323 596.5,508.5C 600.786,507.51 605.12,506.343 609.5,505C 617.159,504.5 624.826,504.334 632.5,504.5 Z"/></g>
<g><path style="opacity:1" fill="#0c0d0a" d="M 766.5,513.5 C 772.82,518.485 777.154,524.818 779.5,532.5C 781.253,546.095 781.92,559.762 781.5,573.5C 781.296,576.518 780.963,579.518 780.5,582.5C 778.713,586.075 776.879,589.741 775,593.5C 771.292,597.377 767.458,601.043 763.5,604.5C 767.386,607.705 771.22,611.039 775,614.5C 778.238,618.309 780.404,622.642 781.5,627.5C 782.224,630.843 783.057,634.176 784,637.5C 785.349,654.333 784.349,670.999 781,687.5C 779.729,690.484 778.562,693.484 777.5,696.5C 775.197,698.978 773.031,701.645 771,704.5C 768.312,706.364 765.812,708.364 763.5,710.5C 747.086,717.59 730.086,719.257 712.5,715.5C 707.37,712.766 702.37,709.766 697.5,706.5C 695.091,704.098 693.091,701.431 691.5,698.5C 690.767,696.037 689.767,693.703 688.5,691.5C 690.062,689.637 689.729,688.304 687.5,687.5C 686.754,683.65 685.587,679.983 684,676.5C 683.287,661.151 683.453,645.817 684.5,630.5C 684.756,627.402 685.422,624.402 686.5,621.5C 690.43,614.568 695.764,608.901 702.5,604.5C 694.55,598.889 688.883,591.556 685.5,582.5C 684.949,579.193 684.616,575.86 684.5,572.5C 684.334,563.161 684.5,553.827 685,544.5C 686.435,539.959 687.268,535.292 687.5,530.5C 687.5,530.167 687.5,529.833 687.5,529.5C 691.908,523.725 696.574,518.058 701.5,512.5C 702.802,510.178 704.802,508.845 707.5,508.5C 716.05,506.979 724.55,505.646 733,504.5C 742.187,505.164 751.02,507.164 759.5,510.5C 759.281,511.675 759.614,512.675 760.5,513.5C 762.482,512.377 764.482,512.377 766.5,513.5 Z"/></g>
<g><path style="opacity:1" fill="#091704" d="M 403.5,505.5 C 398.859,504.968 394.193,504.634 389.5,504.5C 382.446,504.871 375.446,505.537 368.5,506.5C 370.148,505.073 372.148,504.24 374.5,504C 383.167,503.333 391.833,503.333 400.5,504C 401.737,504.232 402.737,504.732 403.5,505.5 Z"/></g>
<g><path style="opacity:1" fill="#418434" d="M 527.5,505.5 C 537.569,504.171 547.735,504.171 558,505.5C 558.667,575.167 558.667,644.833 558,714.5C 557.5,715 557,715.5 556.5,716C 545.326,716.826 534.326,716.659 523.5,715.5C 534.346,715.828 545.013,715.494 555.5,714.5C 556.499,645.002 556.833,575.335 556.5,505.5C 546.833,505.5 537.167,505.5 527.5,505.5 Z"/></g>
<g><path style="opacity:1" fill="#37702b" d="M 636.5,504.5 C 641.094,503.657 644.761,504.991 647.5,508.5C 643.648,507.395 639.982,506.062 636.5,504.5 Z"/></g>
<g><path style="opacity:1" fill="#041d02" d="M 527.5,506.5 C 527.5,506.167 527.5,505.833 527.5,505.5C 537.167,505.5 546.833,505.5 556.5,505.5C 556.833,575.335 556.499,645.002 555.5,714.5C 544.5,714.5 533.5,714.5 522.5,714.5C 522.5,713.167 522.5,711.833 522.5,710.5C 523.167,711.167 523.833,711.833 524.5,712.5C 534.653,713.494 544.986,713.828 555.5,713.5C 555.5,644.5 555.5,575.5 555.5,506.5C 546.167,506.5 536.833,506.5 527.5,506.5 Z"/></g>
<g><path style="opacity:1" fill="#3a7a2d" d="M 752.5,505.5 C 741.259,503.542 729.925,503.042 718.5,504C 714.384,504.759 710.718,506.259 707.5,508.5C 704.802,508.845 702.802,510.178 701.5,512.5C 699.246,513.415 697.246,514.748 695.5,516.5C 695.5,514.833 695.5,513.167 695.5,511.5C 696.873,511.657 698.207,511.49 699.5,511C 709.245,503.77 720.245,500.937 732.5,502.5C 738.5,502.833 744.5,503.167 750.5,503.5C 751.243,504.182 751.909,504.849 752.5,505.5 Z"/></g>
<g><path style="opacity:1" fill="#081105" d="M 282.5,506.5 C 286.142,507.08 289.809,507.58 293.5,508C 294.416,508.278 295.082,508.778 295.5,509.5C 272.773,508.562 250.106,508.228 227.5,508.5C 227.5,576.5 227.5,644.5 227.5,712.5C 248.169,712.667 268.836,712.5 289.5,712C 293.487,710.726 297.487,709.56 301.5,708.5C 300.833,709.167 300.167,709.833 299.5,710.5C 294.026,712.545 288.36,713.545 282.5,713.5C 263.833,713.5 245.167,713.5 226.5,713.5C 226.5,644.5 226.5,575.5 226.5,506.5C 245.167,506.5 263.833,506.5 282.5,506.5 Z"/></g>
<g><path style="opacity:1" fill="#122e0b" d="M 453.5,505.5 C 467.344,505.171 481.01,505.504 494.5,506.5C 481.167,506.5 467.833,506.5 454.5,506.5C 454.5,575.5 454.5,644.5 454.5,713.5C 454.5,713.833 454.5,714.167 454.5,714.5C 454.167,714.5 453.833,714.5 453.5,714.5C 453.5,644.833 453.5,575.167 453.5,505.5 Z"/></g>
<g><path style="opacity:1" fill="#102c0a" d="M 225.5,505.5 C 244.674,505.17 263.674,505.503 282.5,506.5C 263.833,506.5 245.167,506.5 226.5,506.5C 226.5,575.5 226.5,644.5 226.5,713.5C 245.167,713.5 263.833,713.5 282.5,713.5C 263.674,714.497 244.674,714.83 225.5,714.5C 225.5,644.833 225.5,575.167 225.5,505.5 Z"/></g>
<g><path style="opacity:1" fill="#0c0d0a" d="M 295.5,509.5 C 297.216,509.629 298.883,509.962 300.5,510.5C 307.375,513.113 312.375,517.78 315.5,524.5C 318.496,530.811 321.163,537.144 323.5,543.5C 324.795,587.47 324.795,631.47 323.5,675.5C 323.5,676.167 323.5,676.833 323.5,677.5C 321.83,684.5 319.163,691.167 315.5,697.5C 312.011,702.654 307.345,706.321 301.5,708.5C 297.487,709.56 293.487,710.726 289.5,712C 268.836,712.5 248.169,712.667 227.5,712.5C 227.5,644.5 227.5,576.5 227.5,508.5C 250.106,508.228 272.773,508.562 295.5,509.5 Z"/></g>
<g><path style="opacity:1" fill="#091105" d="M 494.5,506.5 C 495.431,510.293 496.765,513.959 498.5,517.5C 498.5,518.5 498.5,519.5 498.5,520.5C 498.5,520.833 498.5,521.167 498.5,521.5C 497.883,521.389 497.383,521.056 497,520.5C 495.847,516.213 495.013,511.879 494.5,507.5C 481.5,507.5 468.5,507.5 455.5,507.5C 455.5,575.833 455.5,644.167 455.5,712.5C 463.752,712.816 471.919,712.482 480,711.5C 480.547,660.924 480.38,610.59 479.5,560.5C 481.892,559.792 484.059,560.458 486,562.5C 486.497,565.146 486.664,567.813 486.5,570.5C 485.691,568.972 485.024,567.306 484.5,565.5C 484.715,563.821 484.048,562.821 482.5,562.5C 481.667,612.332 481.167,662.332 481,712.5C 472.251,713.484 463.418,713.817 454.5,713.5C 454.5,644.5 454.5,575.5 454.5,506.5C 467.833,506.5 481.167,506.5 494.5,506.5 Z"/></g>
<g><path style="opacity:1" fill="#0c0d0a" d="M 498.5,521.5 C 498.5,521.833 498.5,522.167 498.5,522.5C 498.335,525.518 498.502,528.518 499,531.5C 501.89,541.291 504.557,551.291 507,561.5C 507.383,562.056 507.883,562.389 508.5,562.5C 508.335,565.518 508.502,568.518 509,571.5C 511.236,576.107 513.069,580.774 514.5,585.5C 514.833,585.5 515.167,585.5 515.5,585.5C 515.5,586.167 515.5,586.833 515.5,587.5C 517.814,596.091 519.814,604.758 521.5,613.5C 521.61,618.759 522.61,623.759 524.5,628.5C 523.159,630.834 523.826,632.501 526.5,633.5C 527.086,633.291 527.586,632.957 528,632.5C 528.5,590.835 528.667,549.168 528.5,507.5C 537.167,507.5 545.833,507.5 554.5,507.5C 554.5,575.833 554.5,644.167 554.5,712.5C 544.5,712.5 534.5,712.5 524.5,712.5C 523.833,711.833 523.167,711.167 522.5,710.5C 516.722,690.117 511.056,669.784 505.5,649.5C 505.5,648.833 505.5,648.167 505.5,647.5C 503.435,637.235 500.769,627.235 497.5,617.5C 497.5,617.167 497.5,616.833 497.5,616.5C 497.59,613.848 496.924,611.515 495.5,609.5C 495.5,609.167 495.5,608.833 495.5,608.5C 495.59,605.848 494.924,603.515 493.5,601.5C 493.435,598.572 492.768,595.905 491.5,593.5C 491.741,591.102 491.074,589.102 489.5,587.5C 489.5,586.833 489.5,586.167 489.5,585.5C 488.343,580.538 487.343,575.538 486.5,570.5C 486.664,567.813 486.497,565.146 486,562.5C 484.059,560.458 481.892,559.792 479.5,560.5C 480.38,610.59 480.547,660.924 480,711.5C 471.919,712.482 463.752,712.816 455.5,712.5C 455.5,644.167 455.5,575.833 455.5,507.5C 468.5,507.5 481.5,507.5 494.5,507.5C 495.013,511.879 495.847,516.213 497,520.5C 497.383,521.056 497.883,521.389 498.5,521.5 Z"/></g>
<g><path style="opacity:1" fill="#38702c" d="M 527.5,505.5 C 527.5,505.833 527.5,506.167 527.5,506.5C 527.667,547.835 527.5,589.168 527,630.5C 525.677,626.873 524.511,623.207 523.5,619.5C 525.045,620.23 525.878,621.563 526,623.5C 526.167,583.998 526.667,544.665 527.5,505.5 Z"/></g>
<g><path style="opacity:1" fill="#051303" d="M 527.5,506.5 C 536.833,506.5 546.167,506.5 555.5,506.5C 555.5,575.5 555.5,644.5 555.5,713.5C 544.986,713.828 534.653,713.494 524.5,712.5C 534.5,712.5 544.5,712.5 554.5,712.5C 554.5,644.167 554.5,575.833 554.5,507.5C 545.833,507.5 537.167,507.5 528.5,507.5C 528.667,549.168 528.5,590.835 528,632.5C 527.586,632.957 527.086,633.291 526.5,633.5C 523.826,632.501 523.159,630.834 524.5,628.5C 522.61,623.759 521.61,618.759 521.5,613.5C 522.167,614.833 522.833,616.167 523.5,617.5C 523.5,618.167 523.5,618.833 523.5,619.5C 524.511,623.207 525.677,626.873 527,630.5C 527.5,589.168 527.667,547.835 527.5,506.5 Z"/></g>
<g><path style="opacity:1" fill="#0a1c04" d="M 596.5,508.5 C 593.525,511.323 590.192,513.656 586.5,515.5C 589.125,512.185 592.458,509.851 596.5,508.5 Z"/></g>
<g><path style="opacity:1" fill="#3c822e" d="M 598.5,506.5 C 597.833,507.167 597.167,507.833 596.5,508.5C 592.458,509.851 589.125,512.185 586.5,515.5C 584.5,517.5 582.5,519.5 580.5,521.5C 580.745,516.859 583.078,513.693 587.5,512C 587.167,511.667 586.833,511.333 586.5,511C 588.5,509.667 590.167,508 591.5,506C 593.751,506.207 596.085,506.373 598.5,506.5 Z"/></g>
<g><path style="opacity:1" fill="#081a03" d="M 701.5,512.5 C 696.574,518.058 691.908,523.725 687.5,529.5C 689.315,524.676 691.982,520.342 695.5,516.5C 697.246,514.748 699.246,513.415 701.5,512.5 Z"/></g>
<g><path style="opacity:1" fill="#3c7f2f" d="M 765.5,511.5 C 768.513,513.188 771.513,514.854 774.5,516.5C 776.613,521.523 778.947,526.523 781.5,531.5C 782.48,534.086 782.813,536.753 782.5,539.5C 781.651,537.112 780.651,534.779 779.5,532.5C 777.154,524.818 772.82,518.485 766.5,513.5C 766.167,512.833 765.833,512.167 765.5,511.5 Z"/></g>
<g><path style="opacity:1" fill="#091a03" d="M 351.5,516.5 C 349.913,520.683 347.579,524.35 344.5,527.5C 346.087,523.317 348.421,519.65 351.5,516.5 Z"/></g>
<g><path style="opacity:1" fill="#3c7a30" d="M 426.5,517.5 C 430.066,520.279 432.399,523.945 433.5,528.5C 433.167,528.5 432.833,528.5 432.5,528.5C 430.769,524.705 428.769,521.038 426.5,517.5 Z"/></g>
<g><path style="opacity:1" fill="#081804" d="M 656.5,516.5 C 662.406,521.842 666.073,528.509 667.5,536.5C 667.5,537.5 667.5,538.5 667.5,539.5C 665.41,534.742 663.576,529.742 662,524.5C 659.9,521.949 658.067,519.283 656.5,516.5 Z"/></g>
<g><path style="opacity:1" fill="#38772c" d="M 498.5,520.5 C 499.943,524.142 501.776,527.809 504,531.5C 504.501,536.508 505.001,541.508 505.5,546.5C 502.914,538.57 500.581,530.57 498.5,522.5C 498.5,522.167 498.5,521.833 498.5,521.5C 498.5,521.167 498.5,520.833 498.5,520.5 Z"/></g>
<g><path style="opacity:1" fill="#0d1e07" d="M 315.5,524.5 C 316.458,524.953 317.292,525.619 318,526.5C 319.559,530.266 321.059,533.932 322.5,537.5C 323.15,539.435 323.483,541.435 323.5,543.5C 321.163,537.144 318.496,530.811 315.5,524.5 Z"/></g>
<g><path style="opacity:1" fill="#3d822f" d="M 580.5,521.5 C 578.047,525.859 576.38,530.525 575.5,535.5C 574.076,537.515 573.41,539.848 573.5,542.5C 573.167,542.5 572.833,542.5 572.5,542.5C 572.335,539.15 572.502,535.817 573,532.5C 574.991,529.778 576.491,526.778 577.5,523.5C 578.265,522.388 579.265,521.721 580.5,521.5 Z"/></g>
<g><path style="opacity:1" fill="#39722e" d="M 398.5,536.5 C 390.888,533.523 383.555,533.856 376.5,537.5C 379.095,533.736 382.762,532.069 387.5,532.5C 391.851,532.28 395.517,533.614 398.5,536.5 Z"/></g>
<g><path style="opacity:1" fill="#051502" d="M 258.5,535.5 C 268.413,534.326 278.247,534.326 288,535.5C 288.195,536.819 288.028,538.153 287.5,539.5C 287.167,539.5 286.833,539.5 286.5,539.5C 286.167,539.5 285.833,539.5 285.5,539.5C 284.341,537.75 282.674,536.75 280.5,536.5C 273.352,535.508 266.019,535.175 258.5,535.5 Z"/></g>
<g><path style="opacity:1" fill="#388c28" d="M 398.5,536.5 C 399.5,536.833 400.167,537.5 400.5,538.5C 402.092,542.248 402.925,546.248 403,550.5C 403.812,593.189 403.645,635.856 402.5,678.5C 402.167,679.833 401.833,681.167 401.5,682.5C 399.385,684.891 396.719,686.224 393.5,686.5C 387.095,686.687 381.095,685.354 375.5,682.5C 375.5,682.167 375.5,681.833 375.5,681.5C 374.97,679.076 374.136,676.743 373,674.5C 372.333,631.5 372.333,588.5 373,545.5C 374.083,542.733 375.25,540.067 376.5,537.5C 383.555,533.856 390.888,533.523 398.5,536.5 Z"/></g>
<g><path style="opacity:1" fill="#388c28" d="M 740.5,534.5 C 742.184,536 743.851,537.667 745.5,539.5C 746.228,542.212 747.061,544.879 748,547.5C 748.5,558.161 748.667,568.828 748.5,579.5C 748.167,580.833 747.833,582.167 747.5,583.5C 746.833,584.833 745.833,585.833 744.5,586.5C 743.07,586.579 741.736,586.246 740.5,585.5C 739.713,586.242 739.047,587.075 738.5,588C 733.139,588.609 727.805,588.442 722.5,587.5C 722.167,587.5 721.833,587.5 721.5,587.5C 720.488,586.128 719.488,584.795 718.5,583.5C 718.5,582.833 718.5,582.167 718.5,581.5C 716.876,568.116 717.209,554.783 719.5,541.5C 725.174,535.509 732.174,533.176 740.5,534.5 Z"/></g>
<g><path style="opacity:1" fill="#051602" d="M 258.5,535.5 C 258.5,585.167 258.5,634.833 258.5,684.5C 264.5,684.5 270.5,684.5 276.5,684.5C 270.099,685.826 263.599,685.826 257,684.5C 256.833,659.667 256.667,634.833 256.5,610C 256.5,584.824 257.167,559.991 258.5,535.5 Z"/></g>
<g><path style="opacity:1" fill="#487c3c" d="M 258.5,535.5 C 266.019,535.175 273.352,535.508 280.5,536.5C 273.5,536.5 266.5,536.5 259.5,536.5C 259.5,585.5 259.5,634.5 259.5,683.5C 266.167,683.5 272.833,683.5 279.5,683.5C 278.791,684.404 277.791,684.737 276.5,684.5C 270.5,684.5 264.5,684.5 258.5,684.5C 258.5,634.833 258.5,585.167 258.5,535.5 Z"/></g>
<g><path style="opacity:1" fill="#071403" d="M 498.5,522.5 C 500.581,530.57 502.914,538.57 505.5,546.5C 505.5,547.167 505.5,547.833 505.5,548.5C 506.815,553.094 507.815,557.761 508.5,562.5C 507.883,562.389 507.383,562.056 507,561.5C 504.557,551.291 501.89,541.291 499,531.5C 498.502,528.518 498.335,525.518 498.5,522.5 Z"/></g>
<g><path style="opacity:1" fill="#081903" d="M 687.5,530.5 C 687.268,535.292 686.435,539.959 685,544.5C 684.5,553.827 684.334,563.161 684.5,572.5C 682.952,559.563 683.285,546.563 685.5,533.5C 685.932,532.29 686.599,531.29 687.5,530.5 Z"/></g>
<g><path style="opacity:1" fill="#3d7c30" d="M 740.5,534.5 C 746.161,536.454 749.495,540.454 750.5,546.5C 750.666,556.172 750.5,565.839 750,575.5C 749.79,577.058 749.29,578.391 748.5,579.5C 748.667,568.828 748.5,558.161 748,547.5C 747.061,544.879 746.228,542.212 745.5,539.5C 743.851,537.667 742.184,536 740.5,534.5 Z"/></g>
<g><path style="opacity:1" fill="#051502" d="M 718.5,539.5 C 716.02,546.738 715.02,554.238 715.5,562C 715.667,566.833 715.833,571.667 716,576.5C 716.757,578.315 717.59,579.981 718.5,581.5C 718.5,582.167 718.5,582.833 718.5,583.5C 716.926,583.063 715.759,582.063 715,580.5C 714.333,567.833 714.333,555.167 715,542.5C 715.759,540.937 716.926,539.937 718.5,539.5 Z"/></g>
<g><path style="opacity:1" fill="#3e8031" d="M 782.5,539.5 C 783.222,539.918 783.722,540.584 784,541.5C 784.667,552.833 784.667,564.167 784,575.5C 783.14,578.084 781.973,580.417 780.5,582.5C 780.963,579.518 781.296,576.518 781.5,573.5C 782.268,572.737 782.768,571.737 783,570.5C 783.76,560.133 783.594,549.799 782.5,539.5 Z"/></g>
<g><path style="opacity:1" fill="#031400" d="M 403.5,540.5 C 404.151,541.091 404.818,541.757 405.5,542.5C 406.667,586.83 406.833,631.163 406,675.5C 405.617,676.056 405.117,676.389 404.5,676.5C 405.645,633.522 405.812,590.522 405,547.5C 404.338,545.187 403.838,542.854 403.5,540.5 Z"/></g>
<g><path style="opacity:1" fill="#051701" d="M 432.5,528.5 C 432.833,528.5 433.167,528.5 433.5,528.5C 434.265,531.67 435.265,534.67 436.5,537.5C 437.463,582.152 437.796,626.819 437.5,671.5C 437.5,673.5 437.5,675.5 437.5,677.5C 436.271,681.215 434.938,684.882 433.5,688.5C 433.849,684.333 434.682,680.333 436,676.5C 436.667,633.167 436.667,589.833 436,546.5C 435.844,542.866 434.844,539.533 433,536.5C 432.503,533.854 432.336,531.187 432.5,528.5 Z"/></g>
<g><path style="opacity:1" fill="#408234" d="M 376.5,537.5 C 375.25,540.067 374.083,542.733 373,545.5C 372.333,588.5 372.333,631.5 373,674.5C 374.136,676.743 374.97,679.076 375.5,681.5C 374.069,680.097 372.902,678.431 372,676.5C 371.5,633.501 371.333,590.501 371.5,547.5C 371.592,543.316 373.259,539.983 376.5,537.5 Z"/></g>
<g><path style="opacity:1" fill="#408133" d="M 607.5,541.5 C 606.354,585.811 606.188,630.144 607,674.5C 608.788,678.429 610.955,682.095 613.5,685.5C 608.439,682.747 605.773,678.414 605.5,672.5C 605.5,631.167 605.5,589.833 605.5,548.5C 605.171,545.772 605.837,543.438 607.5,541.5 Z"/></g>
<g><path style="opacity:1" fill="#001900" d="M 340.5,539.5 C 339.555,583.489 339.221,627.489 339.5,671.5C 338.191,628.65 338.191,585.65 339.5,542.5C 339.263,541.209 339.596,540.209 340.5,539.5 Z"/></g>
<g><path style="opacity:1" fill="#387e2b" d="M 685.5,533.5 C 683.285,546.563 682.952,559.563 684.5,572.5C 684.616,575.86 684.949,579.193 685.5,582.5C 684.127,582.657 682.793,582.49 681.5,582C 682.127,580.262 682.46,578.429 682.5,576.5C 679.822,562.553 680.155,548.553 683.5,534.5C 684.183,534.137 684.85,533.804 685.5,533.5 Z"/></g>
<g><path style="opacity:1" fill="#3f8432" d="M 280.5,536.5 C 282.674,536.75 284.341,537.75 285.5,539.5C 277.283,537.765 268.95,537.098 260.5,537.5C 260.5,585.833 260.5,634.167 260.5,682.5C 267.175,682.666 273.842,682.5 280.5,682C 281.623,680.956 282.956,680.29 284.5,680C 283.289,679.107 283.289,678.274 284.5,677.5C 285.72,678.711 286.887,678.711 288,677.5C 288.36,675.392 289.027,673.392 290,671.5C 290.667,630.5 290.667,589.5 290,548.5C 288.085,545.765 286.918,542.765 286.5,539.5C 286.833,539.5 287.167,539.5 287.5,539.5C 289.683,542.864 291.016,546.53 291.5,550.5C 291.5,590.167 291.5,629.833 291.5,669.5C 291.42,677.577 287.42,682.243 279.5,683.5C 272.833,683.5 266.167,683.5 259.5,683.5C 259.5,634.5 259.5,585.5 259.5,536.5C 266.5,536.5 273.5,536.5 280.5,536.5 Z"/></g>
<g><path style="opacity:1" fill="#388c28" d="M 285.5,539.5 C 285.833,539.5 286.167,539.5 286.5,539.5C 286.918,542.765 288.085,545.765 290,548.5C 290.667,589.5 290.667,630.5 290,671.5C 289.027,673.392 288.36,675.392 288,677.5C 286.887,678.711 285.72,678.711 284.5,677.5C 283.289,678.274 283.289,679.107 284.5,680C 282.956,680.29 281.623,680.956 280.5,682C 273.842,682.5 267.175,682.666 260.5,682.5C 260.5,634.167 260.5,585.833 260.5,537.5C 268.95,537.098 277.283,537.765 285.5,539.5 Z"/></g>
<g><path style="opacity:1" fill="#3e8630" d="M 342.5,529.5 C 341.706,532.802 341.04,536.135 340.5,539.5C 339.596,540.209 339.263,541.209 339.5,542.5C 338.778,542.918 338.278,543.584 338,544.5C 337.182,588.529 337.349,632.529 338.5,676.5C 337.778,676.082 337.278,675.416 337,674.5C 336.333,630.167 336.333,585.833 337,541.5C 338.761,537.344 340.595,533.344 342.5,529.5 Z"/></g>
<g><path style="opacity:1" fill="#111b0b" d="M 371.5,547.5 C 371.333,590.501 371.5,633.501 372,676.5C 372.902,678.431 374.069,680.097 375.5,681.5C 375.5,681.833 375.5,682.167 375.5,682.5C 375.833,683.167 376.167,683.833 376.5,684.5C 374.926,684.063 373.759,683.063 373,681.5C 371.39,679.061 370.556,676.394 370.5,673.5C 369.325,673.719 368.325,673.386 367.5,672.5C 368.833,667.167 368.833,661.833 367.5,656.5C 368.327,621.875 368.827,587.208 369,552.5C 369.374,550.509 370.207,548.842 371.5,547.5 Z"/></g>
<g><path style="opacity:1" fill="#3c892d" d="M 438.5,548.5 C 439.117,548.611 439.617,548.944 440,549.5C 440.667,590.167 440.667,630.833 440,671.5C 439.232,675.783 438.066,679.783 436.5,683.5C 437.15,681.565 437.483,679.565 437.5,677.5C 437.5,675.5 437.5,673.5 437.5,671.5C 438.499,630.67 438.832,589.67 438.5,548.5 Z"/></g>
<g><path style="opacity:1" fill="#376e2c" d="M 505.5,548.5 C 508.207,552.656 509.54,557.322 509.5,562.5C 509.167,562.5 508.833,562.5 508.5,562.5C 507.815,557.761 506.815,553.094 505.5,548.5 Z"/></g>
<g><path style="opacity:1" fill="#021a01" d="M 575.5,535.5 C 574.945,541.154 574.445,546.82 574,552.5C 573.5,593.499 573.333,634.499 573.5,675.5C 572.566,674.432 572.232,673.099 572.5,671.5C 572.211,628.487 572.544,585.487 573.5,542.5C 573.41,539.848 574.076,537.515 575.5,535.5 Z"/></g>
<g><path style="opacity:1" fill="#37782b" d="M 740.5,534.5 C 732.174,533.176 725.174,535.509 719.5,541.5C 717.209,554.783 716.876,568.116 718.5,581.5C 717.59,579.981 716.757,578.315 716,576.5C 715.833,571.667 715.667,566.833 715.5,562C 715.02,554.238 716.02,546.738 718.5,539.5C 724.578,532.37 731.912,530.704 740.5,534.5 Z"/></g>
<g><path style="opacity:1" fill="#3e8231" d="M 636.5,540.5 C 637.167,541.5 637.833,542.5 638.5,543.5C 638.5,544.833 638.5,546.167 638.5,547.5C 638.5,556.167 638.5,564.833 638.5,573.5C 637.716,562.655 637.049,551.655 636.5,540.5 Z"/></g>
<g><path style="opacity:1" fill="#3c6e32" d="M 339.5,542.5 C 338.191,585.65 338.191,628.65 339.5,671.5C 339.524,676.923 340.19,682.257 341.5,687.5C 338.919,684.416 337.919,680.75 338.5,676.5C 337.349,632.529 337.182,588.529 338,544.5C 338.278,543.584 338.778,542.918 339.5,542.5 Z"/></g>
<g><path style="opacity:1" fill="#3e8430" d="M 572.5,542.5 C 571.197,585.653 571.197,628.653 572.5,671.5C 572.232,673.099 572.566,674.432 573.5,675.5C 574.362,681.283 575.696,686.95 577.5,692.5C 575.291,691.104 573.791,689.104 573,686.5C 572.921,682.642 572.254,678.976 571,675.5C 570.333,632.5 570.333,589.5 571,546.5C 571.21,544.942 571.71,543.609 572.5,542.5 Z"/></g>
<g><path style="opacity:1" fill="#121f0b" d="M 605.5,548.5 C 605.5,589.833 605.5,631.167 605.5,672.5C 604.883,672.389 604.383,672.056 604,671.5C 603.333,630.833 603.333,590.167 604,549.5C 604.383,548.944 604.883,548.611 605.5,548.5 Z"/></g>
<g><path style="opacity:1" fill="#11230c" d="M 779.5,532.5 C 780.651,534.779 781.651,537.112 782.5,539.5C 783.594,549.799 783.76,560.133 783,570.5C 782.768,571.737 782.268,572.737 781.5,573.5C 781.92,559.762 781.253,546.095 779.5,532.5 Z"/></g>
<g><path style="opacity:1" fill="#3e7d31" d="M 322.5,537.5 C 323.983,539.924 325.15,542.591 326,545.5C 326.667,587.5 326.667,629.5 326,671.5C 325.8,673.32 324.966,674.653 323.5,675.5C 324.795,631.47 324.795,587.47 323.5,543.5C 323.483,541.435 323.15,539.435 322.5,537.5 Z"/></g>
<g><path style="opacity:1" fill="#2b611f" d="M 436.5,537.5 C 437.117,537.611 437.617,537.944 438,538.5C 438.498,541.817 438.665,545.15 438.5,548.5C 438.832,589.67 438.499,630.67 437.5,671.5C 437.796,626.819 437.463,582.152 436.5,537.5 Z"/></g>
<g><path style="opacity:1" fill="#111f0a" d="M 291.5,550.5 C 292.222,550.918 292.722,551.584 293,552.5C 293.667,591.167 293.667,629.833 293,668.5C 292.617,669.056 292.117,669.389 291.5,669.5C 291.5,629.833 291.5,590.167 291.5,550.5 Z"/></g>
<g><path style="opacity:1" fill="#3c6c32" d="M 572.5,542.5 C 572.833,542.5 573.167,542.5 573.5,542.5C 572.544,585.487 572.211,628.487 572.5,671.5C 571.197,628.653 571.197,585.653 572.5,542.5 Z"/></g>
<g><path style="opacity:1" fill="#36762a" d="M 400.5,538.5 C 401.5,539.167 402.5,539.833 403.5,540.5C 403.838,542.854 404.338,545.187 405,547.5C 405.812,590.522 405.645,633.522 404.5,676.5C 403.833,677.167 403.167,677.833 402.5,678.5C 403.645,635.856 403.812,593.189 403,550.5C 402.925,546.248 402.092,542.248 400.5,538.5 Z"/></g>
<g><path style="opacity:1" fill="#021600" d="M 482.5,562.5 C 482.5,613.167 482.5,663.833 482.5,714.5C 473.167,714.5 463.833,714.5 454.5,714.5C 454.5,714.167 454.5,713.833 454.5,713.5C 463.418,713.817 472.251,713.484 481,712.5C 481.167,662.332 481.667,612.332 482.5,562.5 Z"/></g>
<g><path style="opacity:1" fill="#3d862f" d="M 667.5,536.5 C 668.117,536.611 668.617,536.944 669,537.5C 672.879,549.64 673.379,561.64 670.5,573.5C 670.826,564.651 670.493,555.984 669.5,547.5C 669.784,545.585 669.451,543.919 668.5,542.5C 668.737,541.209 668.404,540.209 667.5,539.5C 667.5,538.5 667.5,537.5 667.5,536.5 Z"/></g>
<g><path style="opacity:1" fill="#081704" d="M 508.5,562.5 C 508.833,562.5 509.167,562.5 509.5,562.5C 510.833,568.167 512.167,573.833 513.5,579.5C 513.833,581.5 514.167,583.5 514.5,585.5C 513.069,580.774 511.236,576.107 509,571.5C 508.502,568.518 508.335,565.518 508.5,562.5 Z"/></g>
<g><path style="opacity:1" fill="#3f8231" d="M 484.5,565.5 C 485.024,567.306 485.691,568.972 486.5,570.5C 487.343,575.538 488.343,580.538 489.5,585.5C 488.542,585.047 487.708,584.381 487,583.5C 486.882,580.629 486.216,577.962 485,575.5C 484.833,622.002 484.333,668.335 483.5,714.5C 483.168,664.664 483.501,614.997 484.5,565.5 Z"/></g>
<g><path style="opacity:1" fill="#061303" d="M 668.5,542.5 C 669.451,543.919 669.784,545.585 669.5,547.5C 669.5,555.833 669.5,564.167 669.5,572.5C 659.5,572.5 649.5,572.5 639.5,572.5C 639.826,563.983 639.493,555.65 638.5,547.5C 638.5,546.167 638.5,544.833 638.5,543.5C 639.117,543.611 639.617,543.944 640,544.5C 640.5,553.494 640.666,562.494 640.5,571.5C 649.833,571.5 659.167,571.5 668.5,571.5C 668.5,561.833 668.5,552.167 668.5,542.5 Z"/></g>
<g><path style="opacity:1" fill="#071b03" d="M 750.5,546.5 C 751.658,556.325 751.825,566.325 751,576.5C 750.578,578.355 750.078,580.189 749.5,582C 749.164,583.03 748.497,583.53 747.5,583.5C 747.833,582.167 748.167,580.833 748.5,579.5C 749.29,578.391 749.79,577.058 750,575.5C 750.5,565.839 750.666,556.172 750.5,546.5 Z"/></g>
<g><path style="opacity:1" fill="#193f11" d="M 638.5,547.5 C 639.493,555.65 639.826,563.983 639.5,572.5C 649.5,572.5 659.5,572.5 669.5,572.5C 669.5,564.167 669.5,555.833 669.5,547.5C 670.493,555.984 670.826,564.651 670.5,573.5C 659.833,573.5 649.167,573.5 638.5,573.5C 638.5,564.833 638.5,556.167 638.5,547.5 Z"/></g>
<g><path style="opacity:1" fill="#2b5123" d="M 482.5,562.5 C 484.048,562.821 484.715,563.821 484.5,565.5C 483.501,614.997 483.168,664.664 483.5,714.5C 483.167,714.5 482.833,714.5 482.5,714.5C 482.5,663.833 482.5,613.167 482.5,562.5 Z"/></g>
<g><path style="opacity:1" fill="#34682a" d="M 513.5,579.5 C 515.28,580.99 515.946,582.99 515.5,585.5C 515.167,585.5 514.833,585.5 514.5,585.5C 514.167,583.5 513.833,581.5 513.5,579.5 Z"/></g>
<g><path style="opacity:1" fill="#0c2005" d="M 721.5,587.5 C 721.833,587.5 722.167,587.5 722.5,587.5C 723.842,588.793 725.509,589.626 727.5,590C 731.486,590.499 735.486,590.666 739.5,590.5C 733.861,591.966 728.194,591.633 722.5,589.5C 721.702,589.043 721.369,588.376 721.5,587.5 Z"/></g>
<g><path style="opacity:1" fill="#3e8331" d="M 744.5,586.5 C 743.016,588.074 741.349,589.407 739.5,590.5C 735.486,590.666 731.486,590.499 727.5,590C 725.509,589.626 723.842,588.793 722.5,587.5C 727.805,588.442 733.139,588.609 738.5,588C 739.047,587.075 739.713,586.242 740.5,585.5C 741.736,586.246 743.07,586.579 744.5,586.5 Z"/></g>
<g><path style="opacity:1" fill="#346b2a" d="M 489.5,587.5 C 491.074,589.102 491.741,591.102 491.5,593.5C 489.926,591.898 489.259,589.898 489.5,587.5 Z"/></g>
<g><path style="opacity:1" fill="#376d2b" d="M 515.5,587.5 C 516.966,588.347 517.8,589.68 518,591.5C 520.157,600.122 521.991,608.788 523.5,617.5C 522.833,616.167 522.167,614.833 521.5,613.5C 519.814,604.758 517.814,596.091 515.5,587.5 Z"/></g>
<g><path style="opacity:1" fill="#041401" d="M 669.5,671.5 C 669.795,673.735 669.461,675.735 668.5,677.5C 668.5,651.167 668.5,624.833 668.5,598.5C 653.833,598.5 639.167,598.5 624.5,598.5C 624.5,607.167 624.5,615.833 624.5,624.5C 629.833,624.5 635.167,624.5 640.5,624.5C 641.153,642.532 640.486,660.198 638.5,677.5C 639.443,660.528 639.776,643.528 639.5,626.5C 634.167,626.5 628.833,626.5 623.5,626.5C 623.5,616.833 623.5,607.167 623.5,597.5C 638.833,597.5 654.167,597.5 669.5,597.5C 669.5,622.167 669.5,646.833 669.5,671.5 Z"/></g>
<g><path style="opacity:1" fill="#2e5d25" d="M 493.5,601.5 C 494.924,603.515 495.59,605.848 495.5,608.5C 494.076,606.485 493.41,604.152 493.5,601.5 Z"/></g>
<g><path style="opacity:1" fill="#3b822d" d="M 685.5,582.5 C 688.883,591.556 694.55,598.889 702.5,604.5C 695.764,608.901 690.43,614.568 686.5,621.5C 686.643,619.738 686.309,618.071 685.5,616.5C 688.611,614.461 690.945,611.794 692.5,608.5C 694.071,606.585 696.071,605.585 698.5,605.5C 698.5,604.5 698.5,603.5 698.5,602.5C 696.001,601.494 693.667,600.827 691.5,600.5C 691.709,599.914 692.043,599.414 692.5,599C 688.119,594.381 685.785,588.881 685.5,582.5 Z"/></g>
<g><path style="opacity:1" fill="#316227" d="M 495.5,609.5 C 496.924,611.515 497.59,613.848 497.5,616.5C 496.076,614.485 495.41,612.152 495.5,609.5 Z"/></g>
<g><path style="opacity:1" fill="#3c812e" d="M 670.5,671.5 C 670.5,646.5 670.5,621.5 670.5,596.5C 654.5,596.5 638.5,596.5 622.5,596.5C 622.173,606.681 622.506,616.681 623.5,626.5C 628.833,626.5 634.167,626.5 639.5,626.5C 639.776,643.528 639.443,660.528 638.5,677.5C 636.737,680.02 634.737,682.353 632.5,684.5C 632.238,683.022 632.571,681.689 633.5,680.5C 634.853,679.315 636.02,677.981 637,676.5C 637.5,660.503 637.667,644.503 637.5,628.5C 632.167,628.5 626.833,628.5 621.5,628.5C 620.219,617.291 620.219,606.124 621.5,595C 638.525,594.224 655.525,594.391 672.5,595.5C 672.667,619.836 672.5,644.169 672,668.5C 671.768,669.737 671.268,670.737 670.5,671.5 Z"/></g>
<g><path style="opacity:1" fill="#113c09" d="M 670.5,671.5 C 670.167,671.5 669.833,671.5 669.5,671.5C 669.5,646.833 669.5,622.167 669.5,597.5C 654.167,597.5 638.833,597.5 623.5,597.5C 623.5,607.167 623.5,616.833 623.5,626.5C 622.506,616.681 622.173,606.681 622.5,596.5C 638.5,596.5 654.5,596.5 670.5,596.5C 670.5,621.5 670.5,646.5 670.5,671.5 Z"/></g>
<g><path style="opacity:1" fill="#39722e" d="M 742.5,623.5 C 734.9,621.709 727.567,622.375 720.5,625.5C 723.581,621.91 727.581,620.243 732.5,620.5C 735.567,620.607 738.567,621.107 741.5,622C 742.056,622.383 742.389,622.883 742.5,623.5 Z"/></g>
<g><path style="opacity:1" fill="#388c28" d="M 742.5,623.5 C 744.027,623.427 745.027,624.094 745.5,625.5C 747.438,630.002 748.938,634.668 750,639.5C 750.667,649.167 750.667,658.833 750,668.5C 748.938,671.029 748.105,673.696 747.5,676.5C 746.576,678.39 745.243,679.89 743.5,681C 743.833,681.333 744.167,681.667 744.5,682C 738.437,686.445 731.77,687.612 724.5,685.5C 721.547,684.213 719.214,682.213 717.5,679.5C 716.962,677.883 716.629,676.216 716.5,674.5C 716.167,660.817 716.501,647.15 717.5,633.5C 719.552,631.204 720.552,628.537 720.5,625.5C 727.567,622.375 734.9,621.709 742.5,623.5 Z"/></g>
<g><path style="opacity:1" fill="#397a2c" d="M 497.5,617.5 C 500.769,627.235 503.435,637.235 505.5,647.5C 503.216,642.72 501.383,637.72 500,632.5C 499.107,633.711 498.274,633.711 497.5,632.5C 498.638,627.524 498.638,622.524 497.5,617.5 Z"/></g>
<g><path style="opacity:1" fill="#3e7e31" d="M 686.5,621.5 C 685.422,624.402 684.756,627.402 684.5,630.5C 681.985,638.468 680.985,646.801 681.5,655.5C 681.111,665.995 682.111,676.328 684.5,686.5C 683.011,684.884 682.011,682.884 681.5,680.5C 680.334,665.178 680.167,649.844 681,634.5C 682.169,629.808 684.003,625.474 686.5,621.5 Z"/></g>
<g><path style="opacity:1" fill="#0e1d08" d="M 684.5,630.5 C 683.453,645.817 683.287,661.151 684,676.5C 685.587,679.983 686.754,683.65 687.5,687.5C 689.729,688.304 690.062,689.637 688.5,691.5C 689.767,693.703 690.767,696.037 691.5,698.5C 690.833,698.167 690.167,697.833 689.5,697.5C 688.018,693.706 686.351,690.039 684.5,686.5C 682.111,676.328 681.111,665.995 681.5,655.5C 680.985,646.801 681.985,638.468 684.5,630.5 Z"/></g>
<g><path style="opacity:1" fill="#3d7c31" d="M 720.5,625.5 C 720.552,628.537 719.552,631.204 717.5,633.5C 716.501,647.15 716.167,660.817 716.5,674.5C 715.71,673.391 715.21,672.058 715,670.5C 714.5,659.505 714.333,648.505 714.5,637.5C 715.186,632.735 717.186,628.735 720.5,625.5 Z"/></g>
<g><path style="opacity:1" fill="#3e8130" d="M 781.5,627.5 C 782.458,627.953 783.292,628.619 784,629.5C 787.394,648.465 787.227,667.465 783.5,686.5C 782.272,689.485 781.106,692.485 780,695.5C 779.329,696.252 778.496,696.586 777.5,696.5C 778.562,693.484 779.729,690.484 781,687.5C 784.349,670.999 785.349,654.333 784,637.5C 783.057,634.176 782.224,630.843 781.5,627.5 Z"/></g>
<g><path style="opacity:1" fill="#031901" d="M 714.5,637.5 C 714.333,648.505 714.5,659.505 715,670.5C 715.21,672.058 715.71,673.391 716.5,674.5C 716.629,676.216 716.962,677.883 717.5,679.5C 715.17,677.458 714.004,674.792 714,671.5C 713.174,659.992 713.341,648.659 714.5,637.5 Z"/></g>
<g><path style="opacity:1" fill="#3d7a30" d="M 505.5,649.5 C 511.056,669.784 516.722,690.117 522.5,710.5C 522.5,711.833 522.5,713.167 522.5,714.5C 533.5,714.5 544.5,714.5 555.5,714.5C 545.013,715.494 534.346,715.828 523.5,715.5C 522.504,715.586 521.671,715.252 521,714.5C 520.425,707.326 518.259,700.826 514.5,695C 514.833,694.667 515.167,694.333 515.5,694C 513.83,683.483 511.163,673.316 507.5,663.5C 506.57,658.863 505.903,654.196 505.5,649.5 Z"/></g>
<g><path style="opacity:1" fill="#081903" d="M 751.5,643.5 C 752.824,654.674 752.824,666.007 751.5,677.5C 750.479,679.188 749.145,680.521 747.5,681.5C 748.75,678.933 749.917,676.267 751,673.5C 751.5,663.506 751.666,653.506 751.5,643.5 Z"/></g>
<g><path style="opacity:1" fill="#3d7e30" d="M 745.5,625.5 C 750.461,630.381 752.461,636.381 751.5,643.5C 751.666,653.506 751.5,663.506 751,673.5C 749.917,676.267 748.75,678.933 747.5,681.5C 740.906,687.46 733.239,689.126 724.5,686.5C 724.5,686.167 724.5,685.833 724.5,685.5C 731.77,687.612 738.437,686.445 744.5,682C 744.167,681.667 743.833,681.333 743.5,681C 745.243,679.89 746.576,678.39 747.5,676.5C 748.105,673.696 748.938,671.029 750,668.5C 750.667,658.833 750.667,649.167 750,639.5C 748.938,634.668 747.438,630.002 745.5,625.5 Z"/></g>
<g><path style="opacity:1" fill="#3a7c2e" d="M 669.5,671.5 C 669.833,671.5 670.167,671.5 670.5,671.5C 670.666,675.846 670.499,680.179 670,684.5C 668.128,687.583 666.795,690.916 666,694.5C 665.124,696.635 663.624,697.969 661.5,698.5C 665.345,691.994 667.678,684.994 668.5,677.5C 669.461,675.735 669.795,673.735 669.5,671.5 Z"/></g>
<g><path style="opacity:1" fill="#3b7a2f" d="M 375.5,682.5 C 381.095,685.354 387.095,686.687 393.5,686.5C 388.965,687.744 384.298,687.744 379.5,686.5C 378.71,685.599 377.71,684.932 376.5,684.5C 376.167,683.833 375.833,683.167 375.5,682.5 Z"/></g>
<g><path style="opacity:1" fill="#39742d" d="M 632.5,684.5 C 631.4,685.558 630.066,686.392 628.5,687C 624.167,687.667 619.833,687.667 615.5,687C 614.584,686.722 613.918,686.222 613.5,685.5C 616.483,685.898 619.483,686.232 622.5,686.5C 625.861,685.816 629.195,685.15 632.5,684.5 Z"/></g>
<g><path style="opacity:1" fill="#051802" d="M 401.5,682.5 C 398.764,687.927 394.264,689.927 388,688.5C 384.748,688.481 381.915,687.814 379.5,686.5C 384.298,687.744 388.965,687.744 393.5,686.5C 396.719,686.224 399.385,684.891 401.5,682.5 Z"/></g>
<g><path style="opacity:1" fill="#3a792e" d="M 437.5,677.5 C 437.483,679.565 437.15,681.565 436.5,683.5C 435.461,688.578 434.128,693.578 432.5,698.5C 431.5,698.5 430.5,698.5 429.5,698.5C 431.02,695.28 432.353,691.947 433.5,688.5C 434.938,684.882 436.271,681.215 437.5,677.5 Z"/></g>
<g><path style="opacity:1" fill="#061603" d="M 747.5,681.5 C 747.503,685.057 745.837,687.224 742.5,688C 739.5,688.167 736.5,688.333 733.5,688.5C 730.087,688.483 727.087,687.816 724.5,686.5C 733.239,689.126 740.906,687.46 747.5,681.5 Z"/></g>
<g><path style="opacity:1" fill="#397e2c" d="M 323.5,677.5 C 323.839,682.968 322.839,688.135 320.5,693C 320.957,693.414 321.291,693.914 321.5,694.5C 319.711,696.033 317.711,697.033 315.5,697.5C 319.163,691.167 321.83,684.5 323.5,677.5 Z"/></g>
<g><path style="opacity:1" fill="#38762d" d="M 684.5,686.5 C 686.351,690.039 688.018,693.706 689.5,697.5C 685.592,694.905 683.925,691.238 684.5,686.5 Z"/></g>
<g><path style="opacity:1" fill="#3a782e" d="M 345.5,696.5 C 347.853,698.86 349.853,701.527 351.5,704.5C 349.484,703.544 347.651,702.21 346,700.5C 345.51,699.207 345.343,697.873 345.5,696.5 Z"/></g>
<g><path style="opacity:1" fill="#39792d" d="M 689.5,697.5 C 690.167,697.833 690.833,698.167 691.5,698.5C 693.091,701.431 695.091,704.098 697.5,706.5C 692.471,705.642 689.804,702.642 689.5,697.5 Z"/></g>
<g><path style="opacity:1" fill="#3c7a2f" d="M 429.5,698.5 C 427.976,702.202 425.81,705.536 423,708.5C 421.556,710.155 419.722,710.822 417.5,710.5C 421.833,706.833 425.833,702.833 429.5,698.5 Z"/></g>
<g><path style="opacity:1" fill="#3d7a30" d="M 661.5,698.5 C 660.234,704.024 656.9,707.691 651.5,709.5C 654.213,707.786 656.213,705.453 657.5,702.5C 659.194,701.473 660.527,700.139 661.5,698.5 Z"/></g>
<g><path style="opacity:1" fill="#477d3c" d="M 299.5,710.5 C 299.389,711.117 299.056,711.617 298.5,712C 293.968,713.622 289.301,714.622 284.5,715C 264.662,715.829 244.996,715.662 225.5,714.5C 244.674,714.83 263.674,714.497 282.5,713.5C 288.36,713.545 294.026,712.545 299.5,710.5 Z"/></g>
<g><path style="opacity:1" fill="#0b1706" d="M 657.5,702.5 C 656.213,705.453 654.213,707.786 651.5,709.5C 649.566,710.11 647.899,711.11 646.5,712.5C 631.076,718.347 615.409,719.013 599.5,714.5C 598.833,713.833 598.167,713.167 597.5,712.5C 614.401,717.017 631.067,716.184 647.5,710C 648.772,708.693 649.772,707.193 650.5,705.5C 651.086,705.709 651.586,706.043 652,706.5C 653.162,704.162 654.996,702.828 657.5,702.5 Z"/></g>
<g><path style="opacity:1" fill="#428535" d="M 453.5,714.5 C 453.833,714.5 454.167,714.5 454.5,714.5C 463.833,714.5 473.167,714.5 482.5,714.5C 482.833,714.5 483.167,714.5 483.5,714.5C 483.389,715.117 483.056,715.617 482.5,716C 477.667,716.167 472.833,716.333 468,716.5C 462.784,716.494 457.951,715.827 453.5,714.5 Z"/></g>
<g><path style="opacity:1" fill="#3d7c30" d="M 413.5,712.5 C 412.71,713.794 411.71,714.961 410.5,716C 398.261,718.548 385.927,719.048 373.5,717.5C 371.456,716.935 369.79,715.935 368.5,714.5C 383.598,718.755 398.598,718.088 413.5,712.5 Z"/></g>
<g><path style="opacity:1" fill="#3f8132" d="M 646.5,712.5 C 644.209,714.58 641.542,716.246 638.5,717.5C 628.183,718.666 617.849,718.832 607.5,718C 604.497,717.251 601.831,716.085 599.5,714.5C 615.409,719.013 631.076,718.347 646.5,712.5 Z"/></g>
<g><path style="opacity:1" fill="#3e7e31" d="M 763.5,710.5 C 763.063,712.074 762.063,713.241 760.5,714C 746.869,718.204 732.869,719.537 718.5,718C 716.498,716.981 714.498,716.148 712.5,715.5C 730.086,719.257 747.086,717.59 763.5,710.5 Z"/></g>
</svg>
