<?xml version="1.0" encoding="UTF-8"?>
<!DOCTYPE svg PUBLIC "-//W3C//DTD SVG 1.1//EN" "http://www.w3.org/Graphics/SVG/1.1/DTD/svg11.dtd">
<svg xmlns="http://www.w3.org/2000/svg" version="1.1" width="1080px" height="1080px" style="shape-rendering:geometricPrecision; text-rendering:geometricPrecision; image-rendering:optimizeQuality; fill-rule:evenodd; clip-rule:evenodd" xmlns:xlink="http://www.w3.org/1999/xlink">
<g><path style="opacity:0.976" fill="#000000" d="M 408.5,147.5 C 484.634,148.464 527.134,186.797 536,262.5C 538.065,283.202 537.732,303.868 535,324.5C 525.412,386.089 489.912,421.589 428.5,431C 343.319,436.147 296.486,396.314 288,311.5C 284.847,279.2 288.847,247.867 300,217.5C 315.214,183.137 341.048,161.304 377.5,152C 387.871,149.748 398.205,148.248 408.5,147.5 Z M 400.5,187.5 C 449.572,185.059 476.739,208.392 482,257.5C 484.251,281.878 483.917,306.212 481,330.5C 470.964,378.272 441.797,398.439 393.5,391C 367.76,383.59 351.927,366.757 346,340.5C 339.153,307.897 338.819,275.23 345,242.5C 352.216,212.45 370.716,194.116 400.5,187.5 Z"/></g>
<g><path style="opacity:0.977" fill="#000000" d="M 963.5,147.5 C 991.744,146.428 1018.74,151.595 1044.5,163C 1045.49,176.421 1045.82,189.921 1045.5,203.5C 1011.6,188.944 976.595,185.444 940.5,193C 915.685,201.74 899.851,218.907 893,244.5C 891.018,252.391 889.685,260.391 889,268.5C 887.92,289.234 888.587,309.9 891,330.5C 898.595,372.659 923.928,393.326 967,392.5C 980.742,392.012 994.242,390.012 1007.5,386.5C 1008.5,365.844 1008.83,345.177 1008.5,324.5C 991.5,324.5 974.5,324.5 957.5,324.5C 957.5,312.167 957.5,299.833 957.5,287.5C 990.833,287.5 1024.17,287.5 1057.5,287.5C 1057.83,330.172 1057.5,372.839 1056.5,415.5C 1009.04,433.458 960.702,436.291 911.5,424C 868.489,407.628 843.989,376.462 838,330.5C 834.682,304.502 834.682,278.502 838,252.5C 846.001,200.511 875.168,167.344 925.5,153C 938.172,150.169 950.838,148.336 963.5,147.5 Z"/></g>
<g><path style="opacity:0.979" fill="#000000" d="M 37.5,152.5 C 77.1898,152.061 116.857,152.561 156.5,154C 213.302,160.804 246.802,192.304 257,248.5C 261.343,280.757 260.01,312.757 253,344.5C 237.919,393.568 204.752,420.735 153.5,426C 114.859,427.444 76.1919,427.944 37.5,427.5C 37.5,335.833 37.5,244.167 37.5,152.5 Z M 87.5,191.5 C 107.896,191.072 128.229,191.905 148.5,194C 176.802,198.637 194.636,214.803 202,242.5C 205.612,257.955 207.112,273.621 206.5,289.5C 208.127,313.292 203.961,335.959 194,357.5C 183.5,373.672 168.666,383.172 149.5,386C 128.869,387.415 108.203,387.915 87.5,387.5C 87.5,322.167 87.5,256.833 87.5,191.5 Z"/></g>
<g><path style="opacity:0.978" fill="#000000" d="M 578.5,152.5 C 597.512,152.167 616.512,152.5 635.5,153.5C 672.801,217.297 710.301,280.963 748,344.5C 748.5,280.501 748.667,216.501 748.5,152.5C 763.5,152.5 778.5,152.5 793.5,152.5C 793.5,244.167 793.5,335.833 793.5,427.5C 776.589,427.825 759.756,427.492 743,426.5C 703,357.833 663,289.167 623,220.5C 622.5,289.499 622.333,358.499 622.5,427.5C 607.833,427.5 593.167,427.5 578.5,427.5C 578.5,335.833 578.5,244.167 578.5,152.5 Z"/></g>
<g><path style="opacity:0.976" fill="#000000" d="M 408.5,579.5 C 484.634,580.464 527.134,618.797 536,694.5C 538.065,715.202 537.732,735.868 535,756.5C 525.412,818.089 489.912,853.589 428.5,863C 343.319,868.147 296.486,828.314 288,743.5C 284.847,711.2 288.847,679.867 300,649.5C 315.214,615.137 341.048,593.304 377.5,584C 387.871,581.748 398.205,580.248 408.5,579.5 Z M 400.5,619.5 C 449.572,617.059 476.739,640.392 482,689.5C 484.251,713.878 483.917,738.212 481,762.5C 470.964,810.272 441.797,830.439 393.5,823C 367.76,815.59 351.927,798.757 346,772.5C 339.153,739.897 338.819,707.23 345,674.5C 352.216,644.45 370.716,626.116 400.5,619.5 Z"/></g>
<g><path style="opacity:0.977" fill="#000000" d="M 963.5,579.5 C 991.744,578.428 1018.74,583.595 1044.5,595C 1045.49,608.421 1045.82,621.921 1045.5,635.5C 1011.6,620.944 976.595,617.444 940.5,625C 915.685,633.74 899.851,650.907 893,676.5C 891.018,684.391 889.685,692.391 889,700.5C 887.92,721.234 888.587,741.9 891,762.5C 898.595,804.659 923.928,825.326 967,824.5C 980.742,824.012 994.242,822.012 1007.5,818.5C 1008.5,797.844 1008.83,777.177 1008.5,756.5C 991.5,756.5 974.5,756.5 957.5,756.5C 957.5,744.167 957.5,731.833 957.5,719.5C 990.833,719.5 1024.17,719.5 1057.5,719.5C 1057.83,762.172 1057.5,804.839 1056.5,847.5C 1009.04,865.458 960.702,868.291 911.5,856C 868.489,839.628 843.989,808.462 838,762.5C 834.682,736.502 834.682,710.502 838,684.5C 846.001,632.511 875.168,599.344 925.5,585C 938.172,582.169 950.838,580.336 963.5,579.5 Z"/></g>
<g><path style="opacity:0.979" fill="#000000" d="M 37.5,584.5 C 77.1898,584.061 116.857,584.561 156.5,586C 213.302,592.804 246.802,624.304 257,680.5C 261.343,712.757 260.01,744.757 253,776.5C 237.919,825.568 204.752,852.735 153.5,858C 114.859,859.444 76.1919,859.944 37.5,859.5C 37.5,767.833 37.5,676.167 37.5,584.5 Z M 87.5,623.5 C 107.896,623.072 128.229,623.905 148.5,626C 176.802,630.637 194.636,646.803 202,674.5C 205.612,689.955 207.112,705.621 206.5,721.5C 208.127,745.292 203.961,767.959 194,789.5C 183.5,805.672 168.666,815.172 149.5,818C 128.869,819.415 108.203,819.915 87.5,819.5C 87.5,754.167 87.5,688.833 87.5,623.5 Z"/></g>
<g><path style="opacity:0.978" fill="#000000" d="M 578.5,584.5 C 597.512,584.167 616.512,584.5 635.5,585.5C 672.801,649.297 710.301,712.963 748,776.5C 748.5,712.501 748.667,648.501 748.5,584.5C 763.5,584.5 778.5,584.5 793.5,584.5C 793.5,676.167 793.5,767.833 793.5,859.5C 776.589,859.825 759.756,859.492 743,858.5C 703,789.833 663,721.167 623,652.5C 622.5,721.499 622.333,790.499 622.5,859.5C 607.833,859.5 593.167,859.5 578.5,859.5C 578.5,767.833 578.5,676.167 578.5,584.5 Z"/></g>
</svg>
